999
dxfrw 0.6.3
  0
SECTION
  2
HEADER
  9
$ACADVER
  1
AC1021
  9
$DWGCODEPAGE
  3
ANSI_1252
  9
$INSBASE
 10
0
 20
0
 30
0
  9
$EXTMIN
 10
-16514.39949057535
 20
50.1476936675829
 30
0
  9
$EXTMAX
 10
-2016.138744483978
 20
17791.69446178836
 30
0
  9
$LIMMIN
 10
0
 20
0
  9
$LIMMAX
 10
420
 20
297
  9
$ORTHOMODE
 70
    0
  9
$REGENMODE
 70
    1
  9
$FILLMODE
 70
    1
  9
$QTEXTMODE
 70
    0
  9
$MIRRTEXT
 70
    0
  9
$LTSCALE
 40
1
  9
$ATTMODE
 70
    0
  9
$TEXTSIZE
 40
2.5
  9
$TRACEWID
 40
15.68
  9
$TEXTSTYLE
  7
STANDARD
  9
$CLAYER
  8
00 Landinspektør
  9
$CELTYPE
  6
BYLAYER
  9
$CECOLOR
 62
  256
  9
$CELTSCALE
 40
1
  9
$DISPSILH
 70
    0
  9
$DIMSCALE
 40
100
  9
$DIMASZ
 40
2.5
  9
$DIMEXO
 40
0.625
  9
$DIMDLI
 40
3.75
  9
$DIMRND
 40
0
  9
$DIMDLE
 40
0
  9
$DIMEXE
 40
1.25
  9
$DIMTP
 40
0
  9
$DIMTM
 40
0
  9
$DIMTXT
 40
2
  9
$DIMCEN
 40
2.5
  9
$DIMTSZ
 40
0
  9
$DIMTOL
 70
    0
  9
$DIMLIM
 70
    0
  9
$DIMTIH
 70
    0
  9
$DIMTOH
 70
    0
  9
$DIMSE1
 70
    0
  9
$DIMSE2
 70
    0
  9
$DIMTAD
 70
    1
  9
$DIMZIN
 70
    1
  9
$DIMBLK
  1

  9
$DIMASO
 70
    1
  9
$DIMSHO
 70
    1
  9
$DIMPOST
  1

  9
$DIMAPOST
  1

  9
$DIMALT
 70
    0
  9
$DIMALTD
 70
    3
  9
$DIMALTF
 40
0.03937
  9
$DIMLFAC
 40
0.001
  9
$DIMTOFL
 70
    1
  9
$DIMTVP
 40
0
  9
$DIMTIX
 70
    0
  9
$DIMSOXD
 70
    0
  9
$DIMSAH
 70
    0
  9
$DIMBLK1
  1

  9
$DIMBLK2
  1

  9
$DIMSTYLE
  2
Standard
  9
$DIMCLRD
 70
    0
  9
$DIMCLRE
 70
    0
  9
$DIMCLRT
 70
    0
  9
$DIMTFAC
 40
1
  9
$DIMGAP
 40
0.625
  9
$DIMJUST
 70
    0
  9
$DIMSD1
 70
    0
  9
$DIMSD2
 70
    0
  9
$DIMTOLJ
 70
    0
  9
$DIMTZIN
 70
    8
  9
$DIMALTZ
 70
    0
  9
$DIMALTTZ
 70
    0
  9
$DIMUPT
 70
    0
  9
$DIMDEC
 70
    2
  9
$DIMTDEC
 70
    2
  9
$DIMALTU
 70
    2
  9
$DIMALTTD
 70
    3
  9
$DIMTXSTY
  7
standard
  9
$DIMAUNIT
 70
    0
  9
$DIMADEC
 70
    0
  9
$DIMALTRND
 40
0
  9
$DIMAZIN
 70
    0
  9
$DIMDSEP
 70
    0
  9
$DIMATFIT
 70
    3
  9
$DIMFRAC
 70
    0
  9
$DIMLDRBLK
  1
STANDARD
  9
$DIMLUNIT
 70
    2
  9
$DIMLWD
 70
   -2
  9
$DIMLWE
 70
   -2
  9
$DIMTMOVE
 70
    0
  9
$DIMFXL
 40
1
  9
$DIMFXLON
 70
    0
  9
$DIMJOGANG
 40
0.7854
  9
$DIMTFILL
 70
    0
  9
$DIMTFILLCLR
 70
    0
  9
$DIMARCSYM
 70
    0
  9
$DIMLTYPE
  6

  9
$DIMLTEX1
  6

  9
$DIMLTEX2
  6

  9
$LUNITS
 70
    2
  9
$LUPREC
 70
    4
  9
$SKETCHINC
 40
1
  9
$FILLETRAD
 40
0
  9
$AUNITS
 70
    0
  9
$AUPREC
 70
    2
  9
$MENU
  1
.
  9
$ELEVATION
 40
0
  9
$PELEVATION
 40
0
  9
$THICKNESS
 40
0
  9
$LIMCHECK
 70
    0
  9
$CHAMFERA
 40
0
  9
$CHAMFERB
 40
0
  9
$CHAMFERC
 40
0
  9
$CHAMFERD
 40
0
  9
$SKPOLY
 70
    0
  9
$USRTIMER
 70
    1
  9
$ANGBASE
 50
0
  9
$ANGDIR
 70
    0
  9
$PDMODE
 70
   34
  9
$PDSIZE
 40
0
  9
$PLINEWID
 40
0
  9
$SPLFRAME
 70
    0
  9
$SPLINETYPE
 70
    2
  9
$SPLINESEGS
 70
    8
  9
$HANDSEED
  5
20000
  9
$SURFTAB1
 70
    6
  9
$SURFTAB2
 70
    6
  9
$SURFTYPE
 70
    6
  9
$SURFU
 70
    6
  9
$SURFV
 70
    6
  9
$UCSBASE
  2

  9
$UCSNAME
  2

  9
$UCSORG
 10
0
 20
0
 30
0
  9
$UCSXDIR
 10
1
 20
0
 30
0
  9
$UCSYDIR
 10
0
 20
1
 30
0
  9
$UCSORTHOREF
  2

  9
$UCSORTHOVIEW
 70
    0
  9
$UCSORGTOP
 10
0
 20
0
 30
0
  9
$UCSORGBOTTOM
 10
0
 20
0
 30
0
  9
$UCSORGLEFT
 10
0
 20
0
 30
0
  9
$UCSORGRIGHT
 10
0
 20
0
 30
0
  9
$UCSORGFRONT
 10
0
 20
0
 30
0
  9
$UCSORGBACK
 10
0
 20
0
 30
0
  9
$PUCSBASE
  2

  9
$PUCSNAME
  2

  9
$PUCSORG
 10
0
 20
0
 30
0
  9
$PUCSXDIR
 10
1
 20
0
 30
0
  9
$PUCSYDIR
 10
0
 20
1
 30
0
  9
$PUCSORTHOREF
  2

  9
$PUCSORTHOVIEW
 70
    0
  9
$PUCSORGTOP
 10
0
 20
0
 30
0
  9
$PUCSORGBOTTOM
 10
0
 20
0
 30
0
  9
$PUCSORGLEFT
 10
0
 20
0
 30
0
  9
$PUCSORGRIGHT
 10
0
 20
0
 30
0
  9
$PUCSORGFRONT
 10
0
 20
0
 30
0
  9
$PUCSORGBACK
 10
0
 20
0
 30
0
  9
$USERI1
 70
    0
  9
$USERI2
 70
    0
  9
$USERI3
 70
    0
  9
$USERI4
 70
    0
  9
$USERI5
 70
    0
  9
$USERR1
 40
0
  9
$USERR2
 40
0
  9
$USERR3
 40
0
  9
$USERR4
 40
0
  9
$USERR5
 40
0
  9
$WORLDVIEW
 70
    1
  9
$SHADEDGE
 70
    3
  9
$SHADEDIF
 70
   70
  9
$TILEMODE
 70
    1
  9
$MAXACTVP
 70
   64
  9
$PINSBASE
 10
223.2262353230949
 20
34.66769774784173
 30
0
  9
$PLIMCHECK
 70
    0
  9
$PEXTMIN
 10
0
 20
0
 30
0
  9
$PEXTMAX
 10
0
 20
0
 30
0
  9
$GRIDMODE
 70
    1
  9
$SNAPSTYLE
 70
    0
  9
$GRIDUNIT
 10
0
 20
0
  9
$PLIMMIN
 10
0
 20
0
  9
$PLIMMAX
 10
210
 20
297
  9
$UNITMODE
 70
    0
  9
$VISRETAIN
 70
    1
  9
$PLINEGEN
 70
    0
  9
$PSLTSCALE
 70
    1
  9
$TREEDEPTH
 70
 3020
  9
$CMLSTYLE
  2
Standard
  9
$CMLJUST
 70
    0
  9
$CMLSCALE
 40
20
  9
$PROXYGRAPHICS
 70
    1
  9
$MEASUREMENT
 70
    1
  9
$CELWEIGHT
370
   -1
  9
$ENDCAPS
280
    0
  9
$JOINSTYLE
280
    0
  9
$LWDISPLAY
290
    0
  9
$INSUNITS
 70
    4
  9
$HYPERLINKBASE
  1

  9
$STYLESHEET
  1

  9
$XEDIT
290
    1
  9
$CEPSNTYPE
380
    0
  9
$PSTYLEMODE
290
    1
  9
$EXTNAMES
290
    1
  9
$PSVPSCALE
 40
0.01276015125123713
  9
$OLESTARTUP
290
    0
  9
$SORTENTS
280
  127
  9
$INDEXCTL
280
    0
  9
$HIDETEXT
280
    1
  9
$XCLIPFRAME
290
    0
  9
$HALOGAP
280
    0
  9
$OBSCOLOR
 70
  257
  9
$OBSLTYPE
280
    0
  9
$INTERSECTIONDISPLAY
280
    0
  9
$INTERSECTIONCOLOR
 70
  257
  9
$DIMASSOC
280
    1
  9
$PROJECTNAME
  1

  9
$CAMERADISPLAY
290
    0
  9
$LENSLENGTH
 40
50
  9
$CAMERAHEIGHT
 40
0
  9
$STEPSPERSEC
 40
2
  9
$STEPSIZE
 40
50
  9
$3DDWFPREC
 40
2
  9
$PSOLWIDTH
 40
5
  9
$PSOLHEIGHT
 40
80
  9
$LOFTANG1
 40
1.570796326794897
  9
$LOFTANG2
 40
1.570796326794897
  9
$LOFTMAG1
 40
0
  9
$LOFTMAG2
 40
0
  9
$LOFTPARAM
 70
    7
  9
$LOFTNORMALS
280
    1
  9
$LATITUDE
 40
1
  9
$LONGITUDE
 40
1
  9
$NORTHDIRECTION
 40
0
  9
$TIMEZONE
 70
-8000
  9
$LIGHTGLYPHDISPLAY
280
    1
  9
$TILEMODELIGHTSYNCH
280
    1
  9
$SOLIDHIST
280
    1
  9
$SHOWHIST
280
    1
  9
$DWFFRAME
280
    2
  9
$DGNFRAME
280
    0
  9
$REALWORLDSCALE
290
    1
  9
$INTERFERECOLOR
 62
    1
  9
$CSHADOW
280
    0
  9
$SHADOWPLANELOCATION
 40
0
  0
ENDSEC
  0
SECTION
  2
CLASSES
  0
ENDSEC
  0
SECTION
  2
TABLES
  0
TABLE
  2
VPORT
  5
8
330
0
100
AcDbSymbolTable
 70
    1
  0
VPORT
  5
31
330
2
100
AcDbSymbolTableRecord
100
AcDbViewportTableRecord
  2
*ACTIVE
 70
    0
 10
0
 20
0
 11
1
 21
1
 12
-5023.152674942522
 22
5360.199013612891
 13
0
 23
0
 14
10
 24
10
 15
10
 25
10
 16
0
 26
0
 36
1
 17
0
 27
0
 37
0
 40
3514.579752204116
 41
2.066137566137566
 42
50
 43
0
 44
0
 50
0
 51
0
 71
    0
 72
  100
 73
    1
 74
    3
 75
    0
 76
    1
 77
    0
 78
    0
281
    0
 65
    1
110
0
120
0
130
0
111
1
121
0
131
0
112
0
122
1
132
0
 79
    0
146
0
348
10020
 60
    7
 61
    5
292
1
282
    1
141
0
142
0
 63
  250
421
3358443
  0
ENDTAB
  0
TABLE
  2
LTYPE
  5
5
330
0
100
AcDbSymbolTable
 70
    4
  0
LTYPE
  5
14
330
5
100
AcDbSymbolTableRecord
100
AcDbLinetypeTableRecord
  2
ByBlock
 70
    0
  3

 72
   65
 73
    0
 40
0
  0
LTYPE
  5
15
330
5
100
AcDbSymbolTableRecord
100
AcDbLinetypeTableRecord
  2
ByLayer
 70
    0
  3

 72
   65
 73
    0
 40
0
  0
LTYPE
  5
16
330
5
100
AcDbSymbolTableRecord
100
AcDbLinetypeTableRecord
  2
Continuous
 70
    0
  3
Solid line
 72
   65
 73
    0
 40
0
  0
LTYPE
  5
32
330
5
100
AcDbSymbolTableRecord
100
AcDbLinetypeTableRecord
  2
DOT
 70
    0
  3
Dot . . . . . . . . . . . . . . . . . . . . . .
 72
   65
 73
    2
 40
6.35
 49
0
 74
    0
 49
-6.35
 74
    0
  0
LTYPE
  5
33
330
5
100
AcDbSymbolTableRecord
100
AcDbLinetypeTableRecord
  2
DOTTINY
 70
    0
  3
Dot (.15x) .....................................
 72
   65
 73
    2
 40
0.9525
 49
0
 74
    0
 49
-0.9525
 74
    0
  0
LTYPE
  5
34
330
5
100
AcDbSymbolTableRecord
100
AcDbLinetypeTableRecord
  2
DOT2
 70
    0
  3
Dot (.5x) .....................................
 72
   65
 73
    2
 40
3.175
 49
0
 74
    0
 49
-3.175
 74
    0
  0
LTYPE
  5
35
330
5
100
AcDbSymbolTableRecord
100
AcDbLinetypeTableRecord
  2
DOTX2
 70
    0
  3
Dot (2x) .  .  .  .  .  .  .  .  .  .  .  .  .
 72
   65
 73
    2
 40
12.7
 49
0
 74
    0
 49
-12.7
 74
    0
  0
LTYPE
  5
36
330
5
100
AcDbSymbolTableRecord
100
AcDbLinetypeTableRecord
  2
DASHED
 70
    0
  3
Dashed _ _ _ _ _ _ _ _ _ _ _ _ _ _ _ _ _
 72
   65
 73
    2
 40
19.05
 49
12.7
 74
    0
 49
-6.35
 74
    0
  0
LTYPE
  5
37
330
5
100
AcDbSymbolTableRecord
100
AcDbLinetypeTableRecord
  2
DASHEDTINY
 70
    0
  3
Dashed (.15x) _ _ _ _ _ _ _ _ _ _ _ _ _ _ _ _ _
 72
   65
 73
    2
 40
2.8575
 49
1.905
 74
    0
 49
-0.9525
 74
    0
  0
LTYPE
  5
38
330
5
100
AcDbSymbolTableRecord
100
AcDbLinetypeTableRecord
  2
DASHED2
 70
    0
  3
Dashed (.5x) _ _ _ _ _ _ _ _ _ _ _ _ _ _ _ _ _
 72
   65
 73
    2
 40
9.524999999999999
 49
6.35
 74
    0
 49
-3.175
 74
    0
  0
LTYPE
  5
39
330
5
100
AcDbSymbolTableRecord
100
AcDbLinetypeTableRecord
  2
DASHEDX2
 70
    0
  3
Dashed (2x) ____  ____  ____  ____  ____  ___
 72
   65
 73
    2
 40
38.09999999999999
 49
25.4
 74
    0
 49
-12.7
 74
    0
  0
LTYPE
  5
3A
330
5
100
AcDbSymbolTableRecord
100
AcDbLinetypeTableRecord
  2
DASHDOT
 70
    0
  3
Dash dot __ . __ . __ . __ . __ . __ . __ . __
 72
   65
 73
    4
 40
25.4
 49
12.7
 74
    0
 49
-6.35
 74
    0
 49
0
 74
    0
 49
-6.35
 74
    0
  0
LTYPE
  5
3B
330
5
100
AcDbSymbolTableRecord
100
AcDbLinetypeTableRecord
  2
DASHDOTTINY
 70
    0
  3
Dash dot (.15x) _._._._._._._._._._._._._._._.
 72
   65
 73
    4
 40
3.81
 49
1.905
 74
    0
 49
-0.9525
 74
    0
 49
0
 74
    0
 49
-0.9525
 74
    0
  0
LTYPE
  5
3C
330
5
100
AcDbSymbolTableRecord
100
AcDbLinetypeTableRecord
  2
DASHDOT2
 70
    0
  3
Dash dot (.5x) _._._._._._._._._._._._._._._.
 72
   65
 73
    4
 40
12.7
 49
6.35
 74
    0
 49
-3.175
 74
    0
 49
0
 74
    0
 49
-3.175
 74
    0
  0
LTYPE
  5
3D
330
5
100
AcDbSymbolTableRecord
100
AcDbLinetypeTableRecord
  2
DASHDOTX2
 70
    0
  3
Dash dot (2x) ____  .  ____  .  ____  .  ___
 72
   65
 73
    4
 40
50.8
 49
25.4
 74
    0
 49
-12.7
 74
    0
 49
0
 74
    0
 49
-12.7
 74
    0
  0
LTYPE
  5
3E
330
5
100
AcDbSymbolTableRecord
100
AcDbLinetypeTableRecord
  2
DIVIDE
 70
    0
  3
Divide ____ . . ____ . . ____ . . ____ . . ____
 72
   65
 73
    6
 40
31.75
 49
12.7
 74
    0
 49
-6.35
 74
    0
 49
0
 74
    0
 49
-6.35
 74
    0
 49
0
 74
    0
 49
-6.35
 74
    0
  0
LTYPE
  5
3F
330
5
100
AcDbSymbolTableRecord
100
AcDbLinetypeTableRecord
  2
DIVIDETINY
 70
    0
  3
Divide (.15x) __..__..__..__..__..__..__..__.._
 72
   65
 73
    6
 40
4.7625
 49
1.905
 74
    0
 49
-0.9525
 74
    0
 49
0
 74
    0
 49
-0.9525
 74
    0
 49
0
 74
    0
 49
-0.9525
 74
    0
  0
LTYPE
  5
40
330
5
100
AcDbSymbolTableRecord
100
AcDbLinetypeTableRecord
  2
DIVIDE2
 70
    0
  3
Divide (.5x) __..__..__..__..__..__..__..__.._
 72
   65
 73
    6
 40
15.875
 49
6.35
 74
    0
 49
-3.175
 74
    0
 49
0
 74
    0
 49
-3.175
 74
    0
 49
0
 74
    0
 49
-3.175
 74
    0
  0
LTYPE
  5
41
330
5
100
AcDbSymbolTableRecord
100
AcDbLinetypeTableRecord
  2
DIVIDEX2
 70
    0
  3
Divide (2x) ________  .  .  ________  .  .  _
 72
   65
 73
    6
 40
63.5
 49
25.4
 74
    0
 49
-12.7
 74
    0
 49
0
 74
    0
 49
-12.7
 74
    0
 49
0
 74
    0
 49
-12.7
 74
    0
  0
LTYPE
  5
42
330
5
100
AcDbSymbolTableRecord
100
AcDbLinetypeTableRecord
  2
BORDER
 70
    0
  3
Border __ __ . __ __ . __ __ . __ __ . __ __ .
 72
   65
 73
    6
 40
44.45
 49
12.7
 74
    0
 49
-6.35
 74
    0
 49
12.7
 74
    0
 49
-6.35
 74
    0
 49
0
 74
    0
 49
-6.35
 74
    0
  0
LTYPE
  5
43
330
5
100
AcDbSymbolTableRecord
100
AcDbLinetypeTableRecord
  2
BORDERTINY
 70
    0
  3
Border (.15x) __.__.__.__.__.__.__.__.__.__.__.
 72
   65
 73
    6
 40
6.6675
 49
1.905
 74
    0
 49
-0.9525
 74
    0
 49
1.905
 74
    0
 49
-0.9525
 74
    0
 49
0
 74
    0
 49
-0.9525
 74
    0
  0
LTYPE
  5
44
330
5
100
AcDbSymbolTableRecord
100
AcDbLinetypeTableRecord
  2
BORDER2
 70
    0
  3
Border (.5x) __.__.__.__.__.__.__.__.__.__.__.
 72
   65
 73
    6
 40
22.225
 49
6.35
 74
    0
 49
-3.175
 74
    0
 49
6.35
 74
    0
 49
-3.175
 74
    0
 49
0
 74
    0
 49
-3.175
 74
    0
  0
LTYPE
  5
45
330
5
100
AcDbSymbolTableRecord
100
AcDbLinetypeTableRecord
  2
BORDERX2
 70
    0
  3
Border (2x) ____  ____  .  ____  ____  .  ___
 72
   65
 73
    6
 40
88.89999999999999
 49
25.4
 74
    0
 49
-12.7
 74
    0
 49
25.4
 74
    0
 49
-12.7
 74
    0
 49
0
 74
    0
 49
-12.7
 74
    0
  0
LTYPE
  5
46
330
5
100
AcDbSymbolTableRecord
100
AcDbLinetypeTableRecord
  2
CENTER
 70
    0
  3
Center ____ _ ____ _ ____ _ ____ _ ____ _ ____
 72
   65
 73
    4
 40
50.8
 49
31.75
 74
    0
 49
-6.35
 74
    0
 49
6.35
 74
    0
 49
-6.35
 74
    0
  0
LTYPE
  5
47
330
5
100
AcDbSymbolTableRecord
100
AcDbLinetypeTableRecord
  2
CENTERTINY
 70
    0
  3
Center (.15x) ___ _ ___ _ ___ _ ___ _ ___ _ ___
 72
   65
 73
    4
 40
7.619999999999999
 49
4.7625
 74
    0
 49
-0.9525
 74
    0
 49
0.9525
 74
    0
 49
-0.9525
 74
    0
  0
LTYPE
  5
48
330
5
100
AcDbSymbolTableRecord
100
AcDbLinetypeTableRecord
  2
CENTER2
 70
    0
  3
Center (.5x) ___ _ ___ _ ___ _ ___ _ ___ _ ___
 72
   65
 73
    4
 40
28.575
 49
19.05
 74
    0
 49
-3.175
 74
    0
 49
3.175
 74
    0
 49
-3.175
 74
    0
  0
LTYPE
  5
49
330
5
100
AcDbSymbolTableRecord
100
AcDbLinetypeTableRecord
  2
CENTERX2
 70
    0
  3
Center (2x) ________  __  ________  __  _____
 72
   65
 73
    4
 40
101.6
 49
63.5
 74
    0
 49
-12.7
 74
    0
 49
12.7
 74
    0
 49
-12.7
 74
    0
  0
ENDTAB
  0
TABLE
  2
LAYER
  5
2
330
0
100
AcDbSymbolTable
 70
    1
  0
LAYER
  5
10
330
2
100
AcDbSymbolTableRecord
100
AcDbLayerTableRecord
  2
0
 70
    0
 62
    7
  6
CONTINUOUS
370
   -3
390
F
  0
LAYER
  5
4A
330
2
100
AcDbSymbolTableRecord
100
AcDbLayerTableRecord
  2
00 Landinspektør
 70
    0
 62
    7
  6
CONTINUOUS
370
   -3
390
F
  0
LAYER
  5
4B
330
2
100
AcDbSymbolTableRecord
100
AcDbLayerTableRecord
  2
Matrikel no
 70
    0
 62
    7
  6
CONTINUOUS
370
   -3
390
F
  0
LAYER
  5
4C
330
2
100
AcDbSymbolTableRecord
100
AcDbLayerTableRecord
  2
anvendelse
 70
    0
 62
    7
  6
CONTINUOUS
370
    0
390
F
  0
LAYER
  5
4D
330
2
100
AcDbSymbolTableRecord
100
AcDbLayerTableRecord
  2
dimensions
 70
    0
 62
   96
420
32768
  6
CONTINUOUS
370
    0
390
F
  0
LAYER
  5
4E
330
2
100
AcDbSymbolTableRecord
100
AcDbLayerTableRecord
  2
eksist
 70
    0
 62
    7
  6
CONTINUOUS
370
   -3
390
F
  0
LAYER
  5
4F
330
2
100
AcDbSymbolTableRecord
100
AcDbLayerTableRecord
  2
tagudhæng
 70
    1
 62
    7
  6
CONTINUOUS
370
    0
390
F
  0
LAYER
  5
50
330
2
100
AcDbSymbolTableRecord
100
AcDbLayerTableRecord
  2
udvidelse
 70
    0
 62
    1
  6
CONTINUOUS
370
  100
390
F
  0
ENDTAB
  0
TABLE
  2
STYLE
  5
3
330
0
100
AcDbSymbolTable
 70
    3
  0
STYLE
  5
51
330
2
100
AcDbSymbolTableRecord
100
AcDbTextStyleTableRecord
  2
erstellter_stil_2
 70
    0
 40
0
 41
1
 50
0
 71
    0
 42
1
  3
erstellter_stil_2
  4

  0
STYLE
  5
52
330
2
100
AcDbSymbolTableRecord
100
AcDbTextStyleTableRecord
  2
erstellter_stil_1
 70
    0
 40
0
 41
1
 50
0
 71
    0
 42
1
  3
erstellter_stil_1
  4

  0
STYLE
  5
53
330
2
100
AcDbSymbolTableRecord
100
AcDbTextStyleTableRecord
  2
iso
 70
    0
 40
0
 41
1
 50
0
 71
    0
 42
1
  3
iso
  4

  0
STYLE
  5
54
330
2
100
AcDbSymbolTableRecord
100
AcDbTextStyleTableRecord
  2
standard
 70
    0
 40
0
 41
1
 50
0
 71
    0
 42
1
  3
standard
  4

  0
ENDTAB
  0
TABLE
  2
VIEW
  5
6
330
0
100
AcDbSymbolTable
 70
    0
  0
ENDTAB
  0
TABLE
  2
UCS
  5
7
330
0
100
AcDbSymbolTable
 70
    0
  0
ENDTAB
  0
TABLE
  2
APPID
  5
9
330
0
100
AcDbSymbolTable
 70
    1
  0
APPID
  5
12
330
9
100
AcDbSymbolTableRecord
100
AcDbRegAppTableRecord
  2
ACAD
 70
    0
  0
APPID
  5
55
330
9
100
AcDbSymbolTableRecord
100
AcDbRegAppTableRecord
  2
LibreCad
 70
    0
  0
ENDTAB
  0
TABLE
  2
DIMSTYLE
  5
A
330
0
100
AcDbSymbolTable
 70
    1
100
AcDbDimStyleTable
 71
    1
  0
DIMSTYLE
105
56
330
A
100
AcDbSymbolTableRecord
100
AcDbDimStyleTableRecord
  2
Standard
 70
    0
 40
100
 41
2.5
 42
0.625
 43
0.38
 44
1.25
 45
0
 46
0
 47
0
 48
0
 49
1
140
2
141
0.09
142
0
143
25.4
144
0.001
145
0
146
1
147
0.625
148
0
 71
    0
 72
    0
 73
    0
 74
    1
 75
    0
 76
    0
 77
    0
 78
    1
 79
    0
170
    0
171
    2
172
    0
173
    0
174
    0
175
    0
176
    0
177
    0
178
    0
179
    0
271
    2
272
    4
273
    2
274
    2
275
    0
276
    0
277
    2
278
    0
279
    0
280
    0
281
    0
282
    0
283
    1
284
    0
285
    0
286
    0
288
    0
289
    3
340
standard
341

371
   -2
372
   -2
  0
ENDTAB
  0
TABLE
  2
BLOCK_RECORD
  5
1
330
0
100
AcDbSymbolTable
 70
    2
  0
BLOCK_RECORD
  5
1F
330
1
100
AcDbSymbolTableRecord
100
AcDbBlockTableRecord
  2
*Model_Space
 70
    0
280
    1
281
    0
  0
BLOCK_RECORD
  5
1E
330
1
100
AcDbSymbolTableRecord
100
AcDbBlockTableRecord
  2
*Paper_Space
 70
    0
280
    1
281
    0
  0
BLOCK_RECORD
  5
57
330
1
100
AcDbSymbolTableRecord
100
AcDbBlockTableRecord
  2
*D1
 70
    0
280
    1
281
    0
  0
BLOCK_RECORD
  5
5A
330
1
100
AcDbSymbolTableRecord
100
AcDbBlockTableRecord
  2
*D6
 70
    0
280
    1
281
    0
  0
BLOCK_RECORD
  5
5D
330
1
100
AcDbSymbolTableRecord
100
AcDbBlockTableRecord
  2
*D3
 70
    0
280
    1
281
    0
  0
BLOCK_RECORD
  5
60
330
1
100
AcDbSymbolTableRecord
100
AcDbBlockTableRecord
  2
*D4
 70
    0
280
    1
281
    0
  0
BLOCK_RECORD
  5
63
330
1
100
AcDbSymbolTableRecord
100
AcDbBlockTableRecord
  2
*D2
 70
    0
280
    1
281
    0
  0
BLOCK_RECORD
  5
66
330
1
100
AcDbSymbolTableRecord
100
AcDbBlockTableRecord
  2
*D5
 70
    0
280
    1
281
    0
  0
BLOCK_RECORD
  5
69
330
1
100
AcDbSymbolTableRecord
100
AcDbBlockTableRecord
  2
inner-win
 70
    0
280
    1
281
    0
  0
BLOCK_RECORD
  5
6C
330
1
100
AcDbSymbolTableRecord
100
AcDbBlockTableRecord
  2
toilet_vind_glas
 70
    0
280
    1
281
    0
  0
BLOCK_RECORD
  5
6F
330
1
100
AcDbSymbolTableRecord
100
AcDbBlockTableRecord
  2
indgang_glas
 70
    0
280
    1
281
    0
  0
BLOCK_RECORD
  5
72
330
1
100
AcDbSymbolTableRecord
100
AcDbBlockTableRecord
  2
hoved_indgang
 70
    0
280
    1
281
    0
  0
BLOCK_RECORD
  5
75
330
1
100
AcDbSymbolTableRecord
100
AcDbBlockTableRecord
  2
bryg_sov_dør
 70
    0
280
    1
281
    0
  0
BLOCK_RECORD
  5
78
330
1
100
AcDbSymbolTableRecord
100
AcDbBlockTableRecord
  2
toiletdør
 70
    0
280
    1
281
    0
  0
BLOCK_RECORD
  5
7B
330
1
100
AcDbSymbolTableRecord
100
AcDbBlockTableRecord
  2
til_sovevæ
 70
    0
280
    1
281
    0
  0
BLOCK_RECORD
  5
7E
330
1
100
AcDbSymbolTableRecord
100
AcDbBlockTableRecord
  2
stue_Vindu_væg
 70
    0
280
    1
281
    0
  0
BLOCK_RECORD
  5
81
330
1
100
AcDbSymbolTableRecord
100
AcDbBlockTableRecord
  2
store_vindu
 70
    0
280
    1
281
    0
  0
BLOCK_RECORD
  5
84
330
1
100
AcDbSymbolTableRecord
100
AcDbBlockTableRecord
  2
lille_vindu
 70
    0
280
    1
281
    0
  0
BLOCK_RECORD
  5
87
330
1
100
AcDbSymbolTableRecord
100
AcDbBlockTableRecord
  2
tilnyeværelse
 70
    0
280
    1
281
    0
  0
BLOCK_RECORD
  5
8A
330
1
100
AcDbSymbolTableRecord
100
AcDbBlockTableRecord
  2
dør_80
 70
    0
280
    1
281
    0
  0
BLOCK_RECORD
  5
8D
330
1
100
AcDbSymbolTableRecord
100
AcDbBlockTableRecord
  2
north_block
 70
    0
280
    1
281
    0
  0
ENDTAB
  0
ENDSEC
  0
SECTION
  2
BLOCKS
  0
BLOCK
  5
20
330
1F
100
AcDbEntity
  8
0
100
AcDbBlockBegin
  2
*Model_Space
 70
    0
 10
0
 20
0
 30
0
  3
*Model_Space
  1

  0
ENDBLK
  5
21
330
1F
100
AcDbEntity
  8
0
100
AcDbBlockEnd
  0
BLOCK
  5
1C
330
1B
100
AcDbEntity
  8
0
100
AcDbBlockBegin
  2
*Paper_Space
 70
    0
 10
0
 20
0
 30
0
  3
*Paper_Space
  1

  0
ENDBLK
  5
1D
330
1F
100
AcDbEntity
  8
0
100
AcDbBlockEnd
  0
BLOCK
  5
58
330
57
100
AcDbEntity
  8
0
100
AcDbBlockBegin
  2
*D1
 70
    1
 10
0
 20
0
  3
*D1
  1

  0
LINE
  5
90
100
AcDbEntity
  8
dimensions
  6
ByBlock
 62
    0
370
   -2
100
AcDbLine
 10
-16514.39949057535
 20
17529.19446178836
 11
-2964.399490575346
 21
17529.19446178836
  0
SOLID
  5
91
100
AcDbEntity
  8
dimensions
  6
ByBlock
 62
    0
370
   -2
100
AcDbTrace
 10
-16514.39949057535
 20
17529.19446178836
 30
0
 11
-16264.39949057535
 21
17570.82292756564
 31
0
 12
-16264.39949057535
 22
17487.56599601108
 32
0
 13
-16264.39949057535
 23
17487.56599601108
 33
0
  0
SOLID
  5
92
100
AcDbEntity
  8
dimensions
  6
ByBlock
 62
    0
370
   -2
100
AcDbTrace
 10
-2964.399490575346
 20
17529.19446178836
 30
0
 11
-3214.399490575346
 21
17487.56599601108
 31
0
 12
-3214.399490575346
 22
17570.82292756564
 32
0
 13
-3214.399490575346
 23
17570.82292756564
 33
0
  0
MTEXT
  5
93
100
AcDbEntity
  8
dimensions
  6
CONTINUOUS
 62
    0
370
   -2
100
AcDbMText
 10
-9739.399490575348
 20
17691.69446178836
 30
0
 40
200
 41
577.7777777778147
 71
    5
 72
    1
  1
13.55
  7
standard
210
0
220
0
230
1
 50
0
 73
    2
 44
1
  0
LINE
  5
94
100
AcDbEntity
  8
dimensions
  6
ByBlock
 62
    0
370
   -2
100
AcDbLine
 10
-16514.39949057535
 20
16543.06505432398
 11
-16514.39949057535
 21
17654.19446178836
  0
LINE
  5
95
100
AcDbEntity
  8
dimensions
  6
ByBlock
 62
    0
370
   -2
100
AcDbLine
 10
-2964.399490575346
 20
16543.06505432398
 11
-2964.399490575346
 21
17654.19446178836
  0
ENDBLK
  5
59
330
57
100
AcDbEntity
  8
0
100
AcDbBlockEnd
  0
BLOCK
  5
5B
330
5A
100
AcDbEntity
  8
0
100
AcDbBlockBegin
  2
*D6
 70
    1
 10
0
 20
0
  3
*D6
  1

  0
LINE
  5
96
100
AcDbEntity
  8
dimensions
  6
ByBlock
 62
    0
370
   -2
100
AcDbLine
 10
-4984.399490575346
 20
4608.065054323979
 11
-4984.399490575346
 21
3755.415338684346
  0
LINE
  5
97
100
AcDbEntity
  8
dimensions
  6
ByBlock
 62
    0
370
   -2
100
AcDbLine
 10
-10454.39949057535
 20
4608.065054323979
 11
-10454.39949057535
 21
3755.415338684346
  0
LINE
  5
98
100
AcDbEntity
  8
dimensions
  6
ByBlock
 62
    0
370
   -2
100
AcDbLine
 10
-4984.399490575346
 20
3880.415338684346
 11
-10454.39949057535
 21
3880.415338684346
  0
SOLID
  5
99
100
AcDbEntity
  8
dimensions
  6
ByBlock
 62
    0
370
   -2
100
AcDbTrace
 10
-4984.399490575346
 20
3880.415338684346
 30
0
 11
-5234.399490575346
 21
3838.786872907062
 31
0
 12
-5234.399490575346
 22
3922.04380446163
 32
0
 13
-5234.399490575346
 23
3922.04380446163
 33
0
  0
SOLID
  5
9A
100
AcDbEntity
  8
dimensions
  6
ByBlock
 62
    0
370
   -2
100
AcDbTrace
 10
-10454.39949057535
 20
3880.415338684346
 30
0
 11
-10204.39949057535
 21
3922.04380446163
 31
0
 12
-10204.39949057535
 22
3838.786872907062
 32
0
 13
-10204.39949057535
 23
3838.786872907062
 33
0
  0
MTEXT
  5
9B
100
AcDbEntity
  8
dimensions
  6
CONTINUOUS
 62
    0
370
   -2
100
AcDbMText
 10
-7719.399490575348
 20
4042.915338684346
 30
0
 40
200
 41
488.8888888889012
 71
    5
 72
    1
  1
5.47
  7
standard
210
0
220
0
230
1
 50
360
 73
    2
 44
1
  0
ENDBLK
  5
5C
330
5A
100
AcDbEntity
  8
0
100
AcDbBlockEnd
  0
BLOCK
  5
5E
330
5D
100
AcDbEntity
  8
0
100
AcDbBlockBegin
  2
*D3
 70
    1
 10
0
 20
0
  3
*D3
  1

  0
LINE
  5
9C
100
AcDbEntity
  8
dimensions
  6
ByBlock
 62
    0
370
   -2
100
AcDbLine
 10
-2901.899490575347
 20
5540.565054323979
 11
-2019.47106199536
 21
5540.565054323979
  0
LINE
  5
9D
100
AcDbEntity
  8
dimensions
  6
ByBlock
 62
    0
370
   -2
100
AcDbLine
 10
-2901.899490575347
 20
8570.565054323979
 11
-2019.47106199536
 21
8570.565054323979
  0
LINE
  5
9E
100
AcDbEntity
  8
dimensions
  6
ByBlock
 62
    0
370
   -2
100
AcDbLine
 10
-2144.47106199536
 20
5540.565054323979
 11
-2144.47106199536
 21
8570.565054323979
  0
SOLID
  5
9F
100
AcDbEntity
  8
dimensions
  6
ByBlock
 62
    0
370
   -2
100
AcDbTrace
 10
-2144.47106199536
 20
5540.565054323979
 30
0
 11
-2186.099527772644
 21
5790.565054323979
 31
0
 12
-2102.842596218076
 22
5790.565054323979
 32
0
 13
-2102.842596218076
 23
5790.565054323979
 33
0
  0
SOLID
  5
A0
100
AcDbEntity
  8
dimensions
  6
ByBlock
 62
    0
370
   -2
100
AcDbTrace
 10
-2144.47106199536
 20
8570.565054323979
 30
0
 11
-2102.842596218076
 21
8320.565054323979
 31
0
 12
-2186.099527772644
 22
8320.565054323979
 32
0
 13
-2186.099527772644
 23
8320.565054323979
 33
0
  0
MTEXT
  5
A1
100
AcDbEntity
  8
dimensions
  6
CONTINUOUS
 62
    0
370
   -2
100
AcDbMText
 10
-2306.97106199536
 20
7055.565054323979
 30
0
 40
200
 41
466.6666666666911
 71
    5
 72
    1
  1
3.03
  7
standard
210
0
220
0
230
1
 50
90
 73
    2
 44
1
  0
ENDBLK
  5
5F
330
5D
100
AcDbEntity
  8
0
100
AcDbBlockEnd
  0
BLOCK
  5
61
330
60
100
AcDbEntity
  8
0
100
AcDbBlockBegin
  2
*D4
 70
    1
 10
0
 20
0
  3
*D4
  1

  0
LINE
  5
A2
100
AcDbEntity
  8
dimensions
  6
ByBlock
 62
    0
370
   -2
100
AcDbLine
 10
-4984.399490575346
 20
4608.065054323979
 11
-4984.399490575346
 21
3764.327131662233
  0
LINE
  5
A3
100
AcDbEntity
  8
dimensions
  6
ByBlock
 62
    0
370
   -2
100
AcDbLine
 10
-2964.399490575347
 20
4608.065054323979
 11
-2964.399490575347
 21
3764.327131662233
  0
LINE
  5
A4
100
AcDbEntity
  8
dimensions
  6
ByBlock
 62
    0
370
   -2
100
AcDbLine
 10
-4984.399490575346
 20
3889.327131662233
 11
-2964.399490575347
 21
3889.327131662233
  0
SOLID
  5
A5
100
AcDbEntity
  8
dimensions
  6
ByBlock
 62
    0
370
   -2
100
AcDbTrace
 10
-4984.399490575346
 20
3889.327131662233
 30
0
 11
-4734.399490575346
 21
3930.955597439517
 31
0
 12
-4734.399490575346
 22
3847.698665884949
 32
0
 13
-4734.399490575346
 23
3847.698665884949
 33
0
  0
SOLID
  5
A6
100
AcDbEntity
  8
dimensions
  6
ByBlock
 62
    0
370
   -2
100
AcDbTrace
 10
-2964.399490575347
 20
3889.327131662233
 30
0
 11
-3214.399490575347
 21
3847.698665884949
 31
0
 12
-3214.399490575347
 22
3930.955597439517
 32
0
 13
-3214.399490575347
 23
3930.955597439517
 33
0
  0
MTEXT
  5
A7
100
AcDbEntity
  8
dimensions
  6
CONTINUOUS
 62
    0
370
   -2
100
AcDbMText
 10
-3974.399490575347
 20
4051.827131662233
 30
0
 40
200
 41
466.6666666666666
 71
    5
 72
    1
  1
2.02
  7
standard
210
0
220
0
230
1
 50
0
 73
    2
 44
1
  0
ENDBLK
  5
62
330
60
100
AcDbEntity
  8
0
100
AcDbBlockEnd
  0
BLOCK
  5
64
330
63
100
AcDbEntity
  8
0
100
AcDbBlockBegin
  2
*D2
 70
    1
 10
0
 20
0
  3
*D2
  1

  0
LINE
  5
A8
100
AcDbEntity
  8
dimensions
  6
ByBlock
 62
    0
370
   -2
100
AcDbLine
 10
-2148.545268979158
 20
8570.565054323979
 11
-2148.545268979158
 21
16480.56505432398
  0
SOLID
  5
A9
100
AcDbEntity
  8
dimensions
  6
ByBlock
 62
    0
370
   -2
100
AcDbTrace
 10
-2148.545268979158
 20
8570.565054323979
 30
0
 11
-2190.173734756442
 21
8820.565054323979
 31
0
 12
-2106.916803201874
 22
8820.565054323979
 32
0
 13
-2106.916803201874
 23
8820.565054323979
 33
0
  0
SOLID
  5
AA
100
AcDbEntity
  8
dimensions
  6
ByBlock
 62
    0
370
   -2
100
AcDbTrace
 10
-2148.545268979158
 20
16480.56505432398
 30
0
 11
-2106.916803201874
 21
16230.56505432398
 31
0
 12
-2190.173734756442
 22
16230.56505432398
 32
0
 13
-2190.173734756442
 23
16230.56505432398
 33
0
  0
MTEXT
  5
AB
100
AcDbEntity
  8
dimensions
  6
CONTINUOUS
 62
    0
370
   -2
100
AcDbMText
 10
-2311.045268979158
 20
12525.56505432398
 30
0
 40
200
 41
422.2222222222222
 71
    5
 72
    1
  1
7.91
  7
standard
210
0
220
0
230
1
 50
90
 73
    2
 44
1
  0
LINE
  5
AC
100
AcDbEntity
  8
dimensions
  6
ByBlock
 62
    0
370
   -2
100
AcDbLine
 10
-2901.899490575346
 20
8570.565054323979
 11
-2023.545268979158
 21
8570.565054323979
  0
LINE
  5
AD
100
AcDbEntity
  8
dimensions
  6
ByBlock
 62
    0
370
   -2
100
AcDbLine
 10
-2901.899490575346
 20
16480.56505432398
 11
-2023.545268979158
 21
16480.56505432398
  0
ENDBLK
  5
65
330
63
100
AcDbEntity
  8
0
100
AcDbBlockEnd
  0
BLOCK
  5
67
330
66
100
AcDbEntity
  8
0
100
AcDbBlockBegin
  2
*D5
 70
    1
 10
0
 20
0
  3
*D5
  1

  0
LINE
  5
AE
100
AcDbEntity
  8
dimensions
  6
ByBlock
 62
    0
370
   -2
100
AcDbLine
 10
-4921.899490575346
 20
5540.565054323979
 11
-2016.138744483978
 21
5540.565054323978
  0
LINE
  5
AF
100
AcDbEntity
  8
dimensions
  6
ByBlock
 62
    0
370
   -2
100
AcDbLine
 10
-4921.899490575346
 20
4670.565054323979
 11
-2016.138744483978
 21
4670.565054323978
  0
LINE
  5
B0
100
AcDbEntity
  8
dimensions
  6
ByBlock
 62
    0
370
   -2
100
AcDbLine
 10
-2141.138744483978
 20
5540.565054323978
 11
-2141.138744483978
 21
4670.565054323978
  0
SOLID
  5
B1
100
AcDbEntity
  8
dimensions
  6
ByBlock
 62
    0
370
   -2
100
AcDbTrace
 10
-2141.138744483978
 20
5540.565054323978
 30
0
 11
-2099.510278706694
 21
5290.565054323978
 31
0
 12
-2182.767210261262
 22
5290.565054323978
 32
0
 13
-2182.767210261262
 23
5290.565054323978
 33
0
  0
SOLID
  5
B2
100
AcDbEntity
  8
dimensions
  6
ByBlock
 62
    0
370
   -2
100
AcDbTrace
 10
-2141.138744483978
 20
4670.565054323978
 30
0
 11
-2182.767210261262
 21
4920.565054323978
 31
0
 12
-2099.510278706694
 22
4920.565054323978
 32
0
 13
-2099.510278706694
 23
4920.565054323978
 33
0
  0
MTEXT
  5
B3
100
AcDbEntity
  8
dimensions
  6
CONTINUOUS
 62
    0
370
   -2
100
AcDbMText
 10
-2303.638744483978
 20
5105.565054323978
 30
0
 40
200
 41
466.6666666666666
 71
    5
 72
    1
  1
0.87
  7
standard
210
0
220
0
230
1
 50
90
 73
    2
 44
1
  0
ENDBLK
  5
68
330
66
100
AcDbEntity
  8
0
100
AcDbBlockEnd
  0
BLOCK
  5
6A
330
69
100
AcDbEntity
  8
0
100
AcDbBlockBegin
  2
inner-win
 70
    0
 10
0
 20
0
  3
inner-win
  1

  0
LINE
  5
B4
100
AcDbEntity
  8
eksist
  6
CONTINUOUS
 62
  256
370
   -1
100
AcDbLine
 10
-725
 20
0
 11
-725
 21
-50
  0
LINE
  5
B5
100
AcDbEntity
  8
eksist
  6
CONTINUOUS
 62
  256
370
   -1
100
AcDbLine
 10
725
 20
0
 11
725
 21
-50
  0
LINE
  5
B6
100
AcDbEntity
  8
eksist
  6
CONTINUOUS
 62
  256
370
   -1
100
AcDbLine
 10
-725
 20
0
 11
725
 21
0
  0
LINE
  5
B7
100
AcDbEntity
  8
eksist
  6
CONTINUOUS
 62
  256
370
   -1
100
AcDbLine
 10
-725
 20
-50
 11
725
 21
-50
  0
LINE
  5
B8
100
AcDbEntity
  8
eksist
  6
CONTINUOUS
 62
  256
370
   -1
100
AcDbLine
 10
-625
 20
0
 11
-625
 21
-50
  0
LINE
  5
B9
100
AcDbEntity
  8
eksist
  6
CONTINUOUS
 62
  256
370
   -1
100
AcDbLine
 10
625
 20
0
 11
625
 21
-50
  0
LINE
  5
BA
100
AcDbEntity
  8
eksist
  6
CONTINUOUS
 62
  256
370
   -1
100
AcDbLine
 10
-625
 20
-25
 11
625
 21
-25
  0
ENDBLK
  5
6B
330
69
100
AcDbEntity
  8
0
100
AcDbBlockEnd
  0
BLOCK
  5
6D
330
6C
100
AcDbEntity
  8
0
100
AcDbBlockBegin
  2
toilet_vind_glas
 70
    0
 10
0
 20
0
  3
toilet_vind_glas
  1

  0
LINE
  5
BB
100
AcDbEntity
  8
eksist
  6
CONTINUOUS
 62
  256
370
   -1
100
AcDbLine
 10
-364.9999999999997
 20
0
 11
-364.9999999999997
 21
-50
  0
LINE
  5
BC
100
AcDbEntity
  8
eksist
  6
CONTINUOUS
 62
  256
370
   -1
100
AcDbLine
 10
364.9999999999997
 20
0
 11
364.9999999999997
 21
-50
  0
LINE
  5
BD
100
AcDbEntity
  8
eksist
  6
CONTINUOUS
 62
  256
370
   -1
100
AcDbLine
 10
-364.9999999999997
 20
0
 11
364.9999999999997
 21
0
  0
LINE
  5
BE
100
AcDbEntity
  8
eksist
  6
CONTINUOUS
 62
  256
370
   -1
100
AcDbLine
 10
-364.9999999999997
 20
-50
 11
364.9999999999997
 21
-50
  0
LINE
  5
BF
100
AcDbEntity
  8
eksist
  6
CONTINUOUS
 62
  256
370
   -1
100
AcDbLine
 10
-264.9999999999996
 20
0
 11
-264.9999999999996
 21
-50
  0
LINE
  5
C0
100
AcDbEntity
  8
eksist
  6
CONTINUOUS
 62
  256
370
   -1
100
AcDbLine
 10
264.9999999999996
 20
0
 11
264.9999999999996
 21
-50
  0
LINE
  5
C1
100
AcDbEntity
  8
eksist
  6
CONTINUOUS
 62
  256
370
   -1
100
AcDbLine
 10
-264.9999999999996
 20
-25
 11
264.9999999999996
 21
-25
  0
ENDBLK
  5
6E
330
6C
100
AcDbEntity
  8
0
100
AcDbBlockEnd
  0
BLOCK
  5
70
330
6F
100
AcDbEntity
  8
0
100
AcDbBlockBegin
  2
indgang_glas
 70
    0
 10
0
 20
0
  3
indgang_glas
  1

  0
LINE
  5
C2
100
AcDbEntity
  8
eksist
  6
CONTINUOUS
 62
  256
370
   -1
100
AcDbLine
 10
-485.0000000000002
 20
0
 11
-485.0000000000002
 21
185
  0
LINE
  5
C3
100
AcDbEntity
  8
eksist
  6
CONTINUOUS
 62
  256
370
   -1
100
AcDbLine
 10
-485.0000000000002
 20
0
 11
-485.0000000000002
 21
-115
  0
LINE
  5
C4
100
AcDbEntity
  8
eksist
  6
CONTINUOUS
 62
  256
370
   -1
100
AcDbLine
 10
485.0000000000002
 20
0
 11
485.0000000000002
 21
185
  0
LINE
  5
C5
100
AcDbEntity
  8
eksist
  6
CONTINUOUS
 62
  256
370
   -1
100
AcDbLine
 10
485.0000000000002
 20
0
 11
485.0000000000002
 21
-115
  0
LINE
  5
C6
100
AcDbEntity
  8
eksist
  6
CONTINUOUS
 62
  256
370
   -1
100
AcDbLine
 10
-485.0000000000002
 20
-115
 11
485.0000000000002
 21
-115
  0
LINE
  5
C7
100
AcDbEntity
  8
eksist
  6
CONTINUOUS
 62
  256
370
   -1
100
AcDbLine
 10
-485.0000000000002
 20
185
 11
485.0000000000002
 21
185
  0
ENDBLK
  5
71
330
6F
100
AcDbEntity
  8
0
100
AcDbBlockEnd
  0
BLOCK
  5
73
330
72
100
AcDbEntity
  8
0
100
AcDbBlockBegin
  2
hoved_indgang
 70
    0
 10
0
 20
0
  3
hoved_indgang
  1

  0
LINE
  5
C8
100
AcDbEntity
  8
eksist
  6
CONTINUOUS
 62
  256
370
   -1
100
AcDbLine
 10
485.0000000000006
 20
0
 11
485.0000000000006
 21
970.0000000000013
  0
LINE
  5
C9
100
AcDbEntity
  8
eksist
  6
CONTINUOUS
 62
  256
370
   -1
100
AcDbLine
 10
-485.0000000000006
 20
0
 11
485.0000000000006
 21
0
  0
LINE
  5
CA
100
AcDbEntity
  8
eksist
  6
CONTINUOUS
 62
  256
370
   -1
100
AcDbLine
 10
-485.0000000000006
 20
-300
 11
485.0000000000006
 21
-300
  0
ARC
  5
CB
100
AcDbEntity
  8
eksist
  6
CONTINUOUS
 62
  256
370
   -1
100
AcDbCircle
 10
485.0000000000006
 20
0
 40
970.0000000000013
100
AcDbArc
 50
90
 51
180
  0
ENDBLK
  5
74
330
72
100
AcDbEntity
  8
0
100
AcDbBlockEnd
  0
BLOCK
  5
76
330
75
100
AcDbEntity
  8
0
100
AcDbBlockBegin
  2
bryg_sov_dør
 70
    0
 10
0
 20
0
  3
bryg_sov_dør
  1

  0
LINE
  5
CC
100
AcDbEntity
  8
eksist
  6
CONTINUOUS
 62
  256
370
   -1
100
AcDbLine
 10
390
 20
0
 11
390
 21
780
  0
LINE
  5
CD
100
AcDbEntity
  8
eksist
  6
CONTINUOUS
 62
  256
370
   -1
100
AcDbLine
 10
-390
 20
0
 11
390
 21
0
  0
LINE
  5
CE
100
AcDbEntity
  8
eksist
  6
CONTINUOUS
 62
  256
370
   -1
100
AcDbLine
 10
-390
 20
-120
 11
390
 21
-120
  0
ARC
  5
CF
100
AcDbEntity
  8
eksist
  6
CONTINUOUS
 62
  256
370
   -1
100
AcDbCircle
 10
390
 20
0
 40
780
100
AcDbArc
 50
90
 51
180
  0
ENDBLK
  5
77
330
75
100
AcDbEntity
  8
0
100
AcDbBlockEnd
  0
BLOCK
  5
79
330
78
100
AcDbEntity
  8
0
100
AcDbBlockBegin
  2
toiletdør
 70
    0
 10
0
 20
0
  3
toiletdør
  1

  0
LINE
  5
D0
100
AcDbEntity
  8
eksist
  6
CONTINUOUS
 62
  256
370
   -1
100
AcDbLine
 10
390
 20
0
 11
390
 21
780
  0
LINE
  5
D1
100
AcDbEntity
  8
eksist
  6
CONTINUOUS
 62
  256
370
   -1
100
AcDbLine
 10
-390
 20
0
 11
390
 21
0
  0
LINE
  5
D2
100
AcDbEntity
  8
eksist
  6
CONTINUOUS
 62
  256
370
   -1
100
AcDbLine
 10
-390
 20
-80
 11
390
 21
-80
  0
ARC
  5
D3
100
AcDbEntity
  8
eksist
  6
CONTINUOUS
 62
  256
370
   -1
100
AcDbCircle
 10
390
 20
0
 40
780
100
AcDbArc
 50
90
 51
180
  0
ENDBLK
  5
7A
330
78
100
AcDbEntity
  8
0
100
AcDbBlockEnd
  0
BLOCK
  5
7C
330
7B
100
AcDbEntity
  8
0
100
AcDbBlockBegin
  2
til_sovevæ
 70
    0
 10
0
 20
0
  3
til_sovevæ
  1

  0
LINE
  5
D4
100
AcDbEntity
  8
eksist
  6
CONTINUOUS
 62
  256
370
   -1
100
AcDbLine
 10
390
 20
0
 11
390
 21
780
  0
LINE
  5
D5
100
AcDbEntity
  8
eksist
  6
CONTINUOUS
 62
  256
370
   -1
100
AcDbLine
 10
-390
 20
0
 11
390
 21
0
  0
LINE
  5
D6
100
AcDbEntity
  8
eksist
  6
CONTINUOUS
 62
  256
370
   -1
100
AcDbLine
 10
-390
 20
-80
 11
390
 21
-80
  0
ARC
  5
D7
100
AcDbEntity
  8
eksist
  6
CONTINUOUS
 62
  256
370
   -1
100
AcDbCircle
 10
390
 20
0
 40
780
100
AcDbArc
 50
90
 51
180
  0
ENDBLK
  5
7D
330
7B
100
AcDbEntity
  8
0
100
AcDbBlockEnd
  0
BLOCK
  5
7F
330
7E
100
AcDbEntity
  8
0
100
AcDbBlockBegin
  2
stue_Vindu_væg
 70
    0
 10
0
 20
0
  3
stue_Vindu_væg
  1

  0
LINE
  5
D8
100
AcDbEntity
  8
eksist
  6
CONTINUOUS
 62
  256
370
   -1
100
AcDbLine
 10
-2821.861247355042
 20
0
 11
-2821.861247355042
 21
-185
  0
LINE
  5
D9
100
AcDbEntity
  8
eksist
  6
CONTINUOUS
 62
  256
370
   -1
100
AcDbLine
 10
-2821.861247355042
 20
0
 11
-2821.861247355042
 21
115
  0
LINE
  5
DA
100
AcDbEntity
  8
eksist
  6
CONTINUOUS
 62
  256
370
   -1
100
AcDbLine
 10
2821.861247355042
 20
0
 11
2821.861247355042
 21
-185
  0
LINE
  5
DB
100
AcDbEntity
  8
eksist
  6
CONTINUOUS
 62
  256
370
   -1
100
AcDbLine
 10
2821.861247355042
 20
0
 11
2821.861247355042
 21
115
  0
LINE
  5
DC
100
AcDbEntity
  8
eksist
  6
CONTINUOUS
 62
  256
370
   -1
100
AcDbLine
 10
-2821.861247355042
 20
115
 11
2821.861247355042
 21
115
  0
LINE
  5
DD
100
AcDbEntity
  8
eksist
  6
CONTINUOUS
 62
  256
370
   -1
100
AcDbLine
 10
-2821.861247355042
 20
-185
 11
2821.861247355042
 21
-185
  0
ENDBLK
  5
80
330
7E
100
AcDbEntity
  8
0
100
AcDbBlockEnd
  0
BLOCK
  5
82
330
81
100
AcDbEntity
  8
0
100
AcDbBlockBegin
  2
store_vindu
 70
    0
 10
0
 20
0
  3
store_vindu
  1

  0
LINE
  5
DE
100
AcDbEntity
  8
eksist
  6
CONTINUOUS
 62
  256
370
   -1
100
AcDbLine
 10
-862.0603031022259
 20
0
 11
-862.0603031022259
 21
-50
  0
LINE
  5
DF
100
AcDbEntity
  8
eksist
  6
CONTINUOUS
 62
  256
370
   -1
100
AcDbLine
 10
862.0603031022259
 20
0
 11
862.0603031022259
 21
-50
  0
LINE
  5
E0
100
AcDbEntity
  8
eksist
  6
CONTINUOUS
 62
  256
370
   -1
100
AcDbLine
 10
-862.0603031022259
 20
0
 11
862.0603031022259
 21
0
  0
LINE
  5
E1
100
AcDbEntity
  8
eksist
  6
CONTINUOUS
 62
  256
370
   -1
100
AcDbLine
 10
-862.0603031022259
 20
-50
 11
862.0603031022259
 21
-50
  0
LINE
  5
E2
100
AcDbEntity
  8
eksist
  6
CONTINUOUS
 62
  256
370
   -1
100
AcDbLine
 10
-762.0603031022259
 20
0
 11
-762.0603031022259
 21
-50
  0
LINE
  5
E3
100
AcDbEntity
  8
eksist
  6
CONTINUOUS
 62
  256
370
   -1
100
AcDbLine
 10
762.0603031022259
 20
0
 11
762.0603031022259
 21
-50
  0
LINE
  5
E4
100
AcDbEntity
  8
eksist
  6
CONTINUOUS
 62
  256
370
   -1
100
AcDbLine
 10
-762.0603031022259
 20
-25
 11
762.0603031022259
 21
-25
  0
ENDBLK
  5
83
330
81
100
AcDbEntity
  8
0
100
AcDbBlockEnd
  0
BLOCK
  5
85
330
84
100
AcDbEntity
  8
0
100
AcDbBlockBegin
  2
lille_vindu
 70
    0
 10
0
 20
0
  3
lille_vindu
  1

  0
LINE
  5
E5
100
AcDbEntity
  8
eksist
  6
CONTINUOUS
 62
  256
370
   -1
100
AcDbLine
 10
-475.4326668669083
 20
0
 11
-475.4326668669083
 21
-50
  0
LINE
  5
E6
100
AcDbEntity
  8
eksist
  6
CONTINUOUS
 62
  256
370
   -1
100
AcDbLine
 10
475.4326668669083
 20
0
 11
475.4326668669083
 21
-50
  0
LINE
  5
E7
100
AcDbEntity
  8
eksist
  6
CONTINUOUS
 62
  256
370
   -1
100
AcDbLine
 10
-475.4326668669083
 20
0
 11
475.4326668669083
 21
0
  0
LINE
  5
E8
100
AcDbEntity
  8
eksist
  6
CONTINUOUS
 62
  256
370
   -1
100
AcDbLine
 10
-475.4326668669083
 20
-50
 11
475.4326668669083
 21
-50
  0
LINE
  5
E9
100
AcDbEntity
  8
eksist
  6
CONTINUOUS
 62
  256
370
   -1
100
AcDbLine
 10
-375.4326668669083
 20
0
 11
-375.4326668669083
 21
-50
  0
LINE
  5
EA
100
AcDbEntity
  8
eksist
  6
CONTINUOUS
 62
  256
370
   -1
100
AcDbLine
 10
375.4326668669083
 20
0
 11
375.4326668669083
 21
-50
  0
LINE
  5
EB
100
AcDbEntity
  8
eksist
  6
CONTINUOUS
 62
  256
370
   -1
100
AcDbLine
 10
-375.4326668669083
 20
-25
 11
375.4326668669083
 21
-25
  0
ENDBLK
  5
86
330
84
100
AcDbEntity
  8
0
100
AcDbBlockEnd
  0
BLOCK
  5
88
330
87
100
AcDbEntity
  8
0
100
AcDbBlockBegin
  2
tilnyeværelse
 70
    0
 10
0
 20
0
  3
tilnyeværelse
  1

  0
LINE
  5
EC
100
AcDbEntity
  8
eksist
  6
CONTINUOUS
 62
  256
370
   -1
100
AcDbLine
 10
390
 20
0
 11
390
 21
780
  0
LINE
  5
ED
100
AcDbEntity
  8
eksist
  6
CONTINUOUS
 62
  256
370
   -1
100
AcDbLine
 10
-390
 20
0
 11
390
 21
0
  0
LINE
  5
EE
100
AcDbEntity
  8
eksist
  6
CONTINUOUS
 62
  256
370
   -1
100
AcDbLine
 10
-390
 20
-80
 11
390
 21
-80
  0
ARC
  5
EF
100
AcDbEntity
  8
eksist
  6
CONTINUOUS
 62
  256
370
   -1
100
AcDbCircle
 10
390
 20
0
 40
780
100
AcDbArc
 50
90
 51
180
  0
ENDBLK
  5
89
330
87
100
AcDbEntity
  8
0
100
AcDbBlockEnd
  0
BLOCK
  5
8B
330
8A
100
AcDbEntity
  8
0
100
AcDbBlockBegin
  2
dør_80
 70
    0
 10
0
 20
0
  3
dør_80
  1

  0
LINE
  5
F0
100
AcDbEntity
  8
eksist
  6
ByLayer
 62
  256
370
   -1
100
AcDbLine
 10
-1.15548660573404
 20
-802.1626052600541
 11
-1.15548660573404
 21
-2.162605260054079
  0
ARC
  5
F1
100
AcDbEntity
  8
eksist
  6
ByLayer
 62
  256
370
   -1
100
AcDbCircle
 10
-1.15548660573404
 20
-802.1626052600541
 40
800
100
AcDbArc
 50
359.9999999999999
 51
90
  0
LINE
  5
F2
100
AcDbEntity
  8
eksist
  6
ByLayer
 62
  256
370
   -1
100
AcDbLine
 10
-1.155486605735859
 20
-802.1626052600541
 11
798.8445133942605
 21
-802.1626052600559
  0
LINE
  5
F3
100
AcDbEntity
  8
eksist
  6
ByLayer
 62
  256
370
   -1
100
AcDbLine
 10
798.844513394266
 20
-802.1626052600557
 11
798.844513394266
 21
-1102.162605260056
  0
LINE
  5
F4
100
AcDbEntity
  8
eksist
  6
ByLayer
 62
  256
370
   -1
100
AcDbLine
 10
798.844513394266
 20
-1102.162605260056
 11
-1.15548660573404
 21
-1102.162605260056
  0
LINE
  5
F5
100
AcDbEntity
  8
eksist
  6
ByLayer
 62
  256
370
   -1
100
AcDbLine
 10
-1.15548660573404
 20
-1102.162605260056
 11
-1.15548660573404
 21
-802.1626052600541
  0
LINE
  5
F6
100
AcDbEntity
  8
eksist
  6
ByLayer
 62
  256
370
   -1
100
AcDbLine
 10
-1.15548660573404
 20
-1102.162605260056
 11
-1.15548660573404
 21
-1002.162605260056
  0
LINE
  5
F7
100
AcDbEntity
  8
eksist
  6
ByLayer
 62
  256
370
   -1
100
AcDbLine
 10
-1.15548660573404
 20
-1002.162605260056
 11
798.844513394266
 21
-1002.162605260056
  0
ENDBLK
  5
8C
330
8A
100
AcDbEntity
  8
0
100
AcDbBlockEnd
  0
BLOCK
  5
8E
330
8D
100
AcDbEntity
  8
0
100
AcDbBlockBegin
  2
north_block
 70
    0
 10
0
 20
0
  3
north_block
  1

  0
LINE
  5
F8
100
AcDbEntity
  8
Matrikel no
  6
CONTINUOUS
 62
   12
370
   20
100
AcDbLine
 10
0
 20
0
 11
-1317.699999999997
 21
-3741.050000000012
  0
LINE
  5
F9
100
AcDbEntity
  8
Matrikel no
  6
CONTINUOUS
 62
   12
370
   20
100
AcDbLine
 10
6429.400000000001
 20
-4367.190000000011
 11
-3415.400000000005
 21
-899.6000000000076
  0
LINE
  5
FA
100
AcDbEntity
  8
Matrikel no
  6
CONTINUOUS
 62
   12
370
   20
100
AcDbLine
 10
-3415.400000000005
 20
-899.6000000000076
 11
0
 21
0
  0
LINE
  5
FB
100
AcDbEntity
  8
Matrikel no
  6
CONTINUOUS
 62
   12
370
   20
100
AcDbLine
 10
-3415.400000000005
 20
-899.6000000000076
 11
-1317.699999999997
 21
-3741.050000000012
  0
ENDBLK
  5
8F
330
8D
100
AcDbEntity
  8
0
100
AcDbBlockEnd
  0
ENDSEC
  0
SECTION
  2
ENTITIES
  0
HATCH
  5
FC
100
AcDbEntity
  8
eksist
  6
ByLayer
 62
  256
370
   -1
100
AcDbHatch
 10
0
 20
0
 30
0
210
0
220
0
230
1
  2
kerpele
 70
    0
 71
    0
 91
    1
 92
    0
 93
    4
 72
    1
 10
-7084.399490575346
 20
12960.56505432398
 11
-6384.399490575346
 21
12960.56505432398
 72
    1
 10
-6384.399490575346
 20
12960.56505432398
 11
-6384.399490575346
 21
8870.565054323979
 72
    1
 10
-6384.399490575346
 20
8870.565054323979
 11
-7084.399490575346
 21
8870.565054323979
 72
    1
 10
-7084.399490575346
 20
8870.565054323979
 11
-7084.399490575346
 21
12960.56505432398
 97
    0
 75
    0
 76
    1
 52
0
 41
10
 77
    0
 78
    0
 98
    0
  0
HATCH
  5
FD
100
AcDbEntity
  8
eksist
  6
CONTINUOUS
 62
  251
370
   20
100
AcDbHatch
 10
0
 20
0
 30
0
210
0
220
0
230
1
  2
SOLID
 70
    1
 71
    0
 91
    1
 92
    0
 93
    4
 72
    1
 10
-7084.399490575346
 20
13080.56505432398
 11
-7084.399490575346
 21
12960.56505432398
 72
    1
 10
-7084.399490575346
 20
12960.56505432398
 11
-6314.399490575346
 21
12960.56505432398
 72
    1
 10
-6314.399490575346
 20
12960.56505432398
 11
-6314.399490575346
 21
13080.56505432398
 72
    1
 10
-6314.399490575346
 20
13080.56505432398
 11
-7084.399490575346
 21
13080.56505432398
 97
    0
 75
    0
 76
    1
 98
    0
  0
HATCH
  5
FE
100
AcDbEntity
  8
eksist
  6
CONTINUOUS
 62
  251
370
   20
100
AcDbHatch
 10
0
 20
0
 30
0
210
0
220
0
230
1
  2
SOLID
 70
    1
 71
    0
 91
    1
 92
    0
 93
    4
 72
    1
 10
-16214.39949057535
 20
8570.565054323979
 11
-16214.39949057535
 21
8870.565054323979
 72
    1
 10
-16214.39949057535
 20
8870.565054323979
 11
-16214.39949057535
 21
8870.565054323979
 72
    1
 10
-16214.39949057535
 20
8870.565054323979
 11
-16514.39949057535
 21
8570.565054323979
 72
    1
 10
-16514.39949057535
 20
8570.565054323979
 11
-16214.39949057535
 21
8570.565054323979
 97
    0
 75
    0
 76
    1
 98
    0
  0
HATCH
  5
FF
100
AcDbEntity
  8
eksist
  6
CONTINUOUS
 62
  251
370
   20
100
AcDbHatch
 10
0
 20
0
 30
0
210
0
220
0
230
1
  2
SOLID
 70
    1
 71
    0
 91
    1
 92
    0
 93
    4
 72
    1
 10
-10681.73214714461
 20
8570.565054323979
 11
-3264.399490575347
 21
8570.565054323979
 72
    1
 10
-3264.399490575347
 20
8570.565054323979
 11
-2964.399490575347
 21
8870.565054323979
 72
    1
 10
-2964.399490575347
 20
8870.565054323979
 11
-10681.73214714461
 21
8870.565054323979
 72
    1
 10
-10681.73214714461
 20
8870.565054323979
 11
-10681.73214714461
 21
8570.565054323979
 97
    0
 75
    0
 76
    1
 98
    0
  0
HATCH
  5
100
100
AcDbEntity
  8
eksist
  6
CONTINUOUS
 62
  251
370
   20
100
AcDbHatch
 10
0
 20
0
 30
0
210
0
220
0
230
1
  2
SOLID
 70
    1
 71
    0
 91
    1
 92
    0
 93
    4
 72
    1
 10
-3264.399490575347
 20
8570.565054323979
 11
-3264.399490575347
 21
5540.565054323979
 72
    1
 10
-3264.399490575347
 20
5540.565054323979
 11
-2964.399490575347
 21
5540.565054323979
 72
    1
 10
-2964.399490575347
 20
5540.565054323979
 11
-2964.399490575347
 21
8870.565054323979
 72
    1
 10
-2964.399490575347
 20
8870.565054323979
 11
-3264.399490575347
 21
8570.565054323979
 97
    0
 75
    0
 76
    1
 98
    0
  0
HATCH
  5
101
100
AcDbEntity
  8
eksist
  6
CONTINUOUS
 62
  251
370
   20
100
AcDbHatch
 10
0
 20
0
 30
0
210
0
220
0
230
1
  2
SOLID
 70
    1
 71
    0
 91
    1
 92
    0
 93
    4
 72
    1
 10
-15975.38631176245
 20
1739.401562182535
 11
-13759.53404078607
 21
1739.401562182535
 72
    1
 10
-13759.53404078607
 20
1739.401562182535
 11
-13759.53404078607
 21
2039.401562182536
 72
    1
 10
-13759.53404078607
 20
2039.401562182536
 11
-15975.38631176245
 21
2039.401562182536
 72
    1
 10
-15975.38631176245
 20
2039.401562182536
 11
-15975.38631176245
 21
1739.401562182535
 97
    0
 75
    0
 76
    1
 98
    0
  0
HATCH
  5
102
100
AcDbEntity
  8
eksist
  6
CONTINUOUS
 62
  251
370
   20
100
AcDbHatch
 10
0
 20
0
 30
0
210
0
220
0
230
1
  2
SOLID
 70
    1
 71
    0
 91
    1
 92
    0
 93
    4
 72
    1
 10
-10882.7267210328
 20
13080.56505432398
 11
-10882.7267210328
 21
12960.56505432398
 72
    1
 10
-10882.7267210328
 20
12960.56505432398
 11
-7944.399490575348
 21
12960.56505432398
 72
    1
 10
-7944.399490575348
 20
12960.56505432398
 11
-8024.399490575348
 21
13080.56505432398
 72
    1
 10
-8024.399490575348
 20
13080.56505432398
 11
-10882.7267210328
 21
13080.56505432398
 97
    0
 75
    0
 76
    1
 98
    0
  0
HATCH
  5
103
100
AcDbEntity
  8
anvendelse
  6
ByLayer
 62
  256
370
   -1
100
AcDbHatch
 10
0
 20
0
 30
0
210
0
220
0
230
1
  2
kerpele
 70
    0
 71
    0
 91
    1
 92
    0
 93
    4
 72
    1
 10
-10442.7267210328
 20
13080.56505432398
 11
-10882.7267210328
 21
13080.56505432398
 72
    1
 10
-10882.7267210328
 20
13080.56505432398
 11
-10882.7267210328
 21
13380.56505432398
 72
    1
 10
-10882.7267210328
 20
13380.56505432398
 11
-10442.7267210328
 21
13380.56505432398
 72
    1
 10
-10442.7267210328
 20
13380.56505432398
 11
-10442.7267210328
 21
13080.56505432398
 97
    0
 75
    0
 76
    1
 52
0
 41
10
 77
    0
 78
    0
 98
    0
  0
LWPOLYLINE
  5
104
100
AcDbEntity
  8
eksist
  6
CONTINUOUS
 62
  255
370
   20
100
AcDbPolyline
 90
    2
 70
    0
 43
0
 10
-16214.39949057535
 20
8870.565054323979
 10
-16214.39949057535
 20
16180.56505432398
  0
LWPOLYLINE
  5
105
100
AcDbEntity
  8
eksist
  6
CONTINUOUS
 62
  255
370
   20
100
AcDbPolyline
 90
    2
 70
    0
 43
0
 10
-16454.39949057535
 20
16420.56505432398
 10
-16454.39949057535
 20
8870.565054323979
  0
LWPOLYLINE
  5
106
100
AcDbEntity
  8
eksist
  6
CONTINUOUS
 62
  255
370
   20
100
AcDbPolyline
 90
    2
 70
    0
 43
0
 10
-16454.39949057535
 20
8870.565054323979
 10
-16214.39949057535
 20
8870.565054323979
  0
LWPOLYLINE
  5
107
100
AcDbEntity
  8
eksist
  6
CONTINUOUS
 62
  255
370
   20
100
AcDbPolyline
 90
    2
 70
    0
 43
0
 10
-16214.39949057535
 20
16180.56505432398
 10
-3264.399490575347
 20
16180.56505432397
  0
LWPOLYLINE
  5
108
100
AcDbEntity
  8
eksist
  6
CONTINUOUS
 62
  255
370
   20
100
AcDbPolyline
 90
    2
 70
    0
 43
0
 10
-3024.399490575345
 20
16420.56505432397
 10
-16454.39949057535
 20
16420.56505432398
  0
HATCH
  5
109
100
AcDbEntity
  8
eksist
  6
CONTINUOUS
 62
  251
370
   20
100
AcDbHatch
 10
0
 20
0
 30
0
210
0
220
0
230
1
  2
SOLID
 70
    1
 71
    0
 91
    1
 92
    0
 93
    4
 72
    1
 10
-2964.399490575346
 20
16480.56505432398
 11
-3264.399490575346
 21
16180.56505432397
 72
    1
 10
-3264.399490575346
 20
16180.56505432397
 11
-3264.399490575346
 21
15591.13977960675
 72
    1
 10
-3264.399490575346
 20
15591.13977960675
 11
-2964.399490575346
 21
15591.13977960675
 72
    1
 10
-2964.399490575346
 20
15591.13977960675
 11
-2964.399490575346
 21
16480.56505432398
 97
    0
 75
    0
 76
    1
 98
    0
  0
HATCH
  5
10A
100
AcDbEntity
  8
eksist
  6
CONTINUOUS
 62
  251
370
   20
100
AcDbHatch
 10
0
 20
0
 30
0
210
0
220
0
230
1
  2
SOLID
 70
    1
 71
    0
 91
    1
 92
    0
 93
    4
 72
    1
 10
-2964.399490575346
 20
14141.13977960675
 11
-3264.399490575346
 21
14141.13977960675
 72
    1
 10
-3264.399490575346
 20
14141.13977960675
 11
-3264.399490575346
 21
12042.35609164359
 72
    1
 10
-3264.399490575346
 20
12042.35609164359
 11
-2964.399490575346
 21
12042.35609164359
 72
    1
 10
-2964.399490575346
 20
12042.35609164359
 11
-2964.399490575346
 21
14141.13977960675
 97
    0
 75
    0
 76
    1
 98
    0
  0
HATCH
  5
10B
100
AcDbEntity
  8
eksist
  6
CONTINUOUS
 62
  251
370
   20
100
AcDbHatch
 10
0
 20
0
 30
0
210
0
220
0
230
1
  2
SOLID
 70
    1
 71
    0
 91
    1
 92
    0
 93
    4
 72
    1
 10
-2964.399490575346
 20
10592.35609164359
 11
-3264.399490575346
 21
10592.35609164359
 72
    1
 10
-3264.399490575346
 20
10592.35609164359
 11
-3264.399490575346
 21
8870.565054323979
 72
    1
 10
-3264.399490575346
 20
8870.565054323979
 11
-2964.399490575346
 21
8870.565054323979
 72
    1
 10
-2964.399490575346
 20
8870.565054323979
 11
-2964.399490575346
 21
10592.35609164359
 97
    0
 75
    0
 76
    1
 98
    0
  0
LINE
  5
10C
100
AcDbEntity
  8
eksist
  6
CONTINUOUS
 62
  256
370
   -1
100
AcDbLine
 10
-3264.399490575346
 20
15591.13977960675
 11
-2964.399490575346
 21
15591.13977960675
  0
LINE
  5
10D
100
AcDbEntity
  8
eksist
  6
CONTINUOUS
 62
  256
370
   -1
100
AcDbLine
 10
-3264.399490575346
 20
14141.13977960675
 11
-2964.399490575346
 21
14141.13977960675
  0
LINE
  5
10E
100
AcDbEntity
  8
eksist
  6
CONTINUOUS
 62
  256
370
   -1
100
AcDbLine
 10
-3264.399490575346
 20
12042.35609164359
 11
-2964.399490575346
 21
12042.35609164359
  0
LINE
  5
10F
100
AcDbEntity
  8
eksist
  6
CONTINUOUS
 62
  256
370
   -1
100
AcDbLine
 10
-3264.399490575346
 20
10592.35609164359
 11
-2964.399490575346
 21
10592.35609164359
  0
LWPOLYLINE
  5
110
100
AcDbEntity
  8
eksist
  6
CONTINUOUS
 62
  256
370
   -1
100
AcDbPolyline
 90
    2
 70
    0
 43
0
 10
-2964.399490575346
 20
8870.565054323979
 10
-2964.399490575346
 20
10592.35609164359
  0
LWPOLYLINE
  5
111
100
AcDbEntity
  8
eksist
  6
CONTINUOUS
 62
  256
370
   -1
100
AcDbPolyline
 90
    2
 70
    0
 43
0
 10
-2964.399490575346
 20
12042.35609164359
 10
-2964.399490575346
 20
14141.13977960675
  0
LWPOLYLINE
  5
112
100
AcDbEntity
  8
eksist
  6
CONTINUOUS
 62
  256
370
   -1
100
AcDbPolyline
 90
    2
 70
    0
 43
0
 10
-2964.399490575346
 20
15591.13977960674
 10
-2964.399490575346
 20
16480.56505432398
  0
LWPOLYLINE
  5
113
100
AcDbEntity
  8
eksist
  6
CONTINUOUS
 62
  256
370
   -1
100
AcDbPolyline
 90
    2
 70
    0
 43
0
 10
-3264.399490575346
 20
16180.56505432397
 10
-3264.399490575346
 20
15591.13977960675
  0
LWPOLYLINE
  5
114
100
AcDbEntity
  8
eksist
  6
CONTINUOUS
 62
  256
370
   -1
100
AcDbPolyline
 90
    2
 70
    0
 43
0
 10
-3264.399490575346
 20
14141.13977960675
 10
-3264.399490575346
 20
13080.56505432398
  0
LWPOLYLINE
  5
115
100
AcDbEntity
  8
eksist
  6
CONTINUOUS
 62
  256
370
   -1
100
AcDbPolyline
 90
    2
 70
    0
 43
0
 10
-3264.399490575346
 20
12960.56505432398
 10
-3264.399490575346
 20
12042.35609164359
  0
LWPOLYLINE
  5
116
100
AcDbEntity
  8
eksist
  6
CONTINUOUS
 62
  256
370
   -1
100
AcDbPolyline
 90
    2
 70
    0
 43
0
 10
-3264.399490575346
 20
10592.35609164359
 10
-3264.399490575346
 20
8870.565054323979
  0
LINE
  5
117
100
AcDbEntity
  8
eksist
  6
CONTINUOUS
 62
  256
370
   -1
100
AcDbLine
 10
-2964.399490575346
 20
14141.13977960675
 11
-2964.399490575346
 21
15591.13977960675
  0
LINE
  5
118
100
AcDbEntity
  8
eksist
  6
CONTINUOUS
 62
  256
370
   -1
100
AcDbLine
 10
-3264.399490575346
 20
15591.13977960675
 11
-3264.399490575346
 21
14141.13977960675
  0
INSERT
  5
119
100
AcDbEntity
  8
eksist
  6
CONTINUOUS
 62
  256
370
   -1
100
AcDbBlockReference
  2
inner-win
 10
-3079.399490575346
 20
14866.13977960675
 30
0
 41
-1
 42
1
 43
0
 50
270
 70
    1
 71
    1
 44
0
 45
0
  0
LINE
  5
11A
100
AcDbEntity
  8
eksist
  6
CONTINUOUS
 62
  256
370
   -1
100
AcDbLine
 10
-2964.399490575346
 20
10592.35609164359
 11
-2964.399490575346
 21
12042.35609164359
  0
INSERT
  5
11B
100
AcDbEntity
  8
eksist
  6
CONTINUOUS
 62
  256
370
   -1
100
AcDbBlockReference
  2
inner-win
 10
-3079.399490575347
 20
11317.35609164359
 30
0
 41
-1
 42
1
 43
0
 50
270
 70
    1
 71
    1
 44
0
 45
0
  0
HATCH
  5
11C
100
AcDbEntity
  8
eksist
  6
CONTINUOUS
 62
  251
370
   20
100
AcDbHatch
 10
0
 20
0
 30
0
210
0
220
0
230
1
  2
SOLID
 70
    1
 71
    0
 91
    1
 92
    0
 93
    4
 72
    1
 10
-16514.39949057535
 20
16480.56505432398
 11
-16214.39949057535
 21
16180.56505432398
 72
    1
 10
-16214.39949057535
 20
16180.56505432398
 11
-15804.39949057535
 21
16180.56505432398
 72
    1
 10
-15804.39949057535
 20
16180.56505432398
 11
-15804.39949057535
 21
16480.56505432398
 72
    1
 10
-15804.39949057535
 20
16480.56505432398
 11
-16514.39949057535
 21
16480.56505432398
 97
    0
 75
    0
 76
    1
 98
    0
  0
HATCH
  5
11D
100
AcDbEntity
  8
eksist
  6
CONTINUOUS
 62
  251
370
   20
100
AcDbHatch
 10
0
 20
0
 30
0
210
0
220
0
230
1
  2
SOLID
 70
    1
 71
    0
 91
    1
 92
    0
 93
    4
 72
    1
 10
-14354.39949057535
 20
16480.56505432398
 11
-14354.39949057535
 21
16180.56505432398
 72
    1
 10
-14354.39949057535
 20
16180.56505432398
 11
-13164.39949057534
 21
16180.56505432398
 72
    1
 10
-13164.39949057534
 20
16180.56505432398
 11
-13164.39949057534
 21
16480.56505432398
 72
    1
 10
-13164.39949057534
 20
16480.56505432398
 11
-14354.39949057535
 21
16480.56505432398
 97
    0
 75
    0
 76
    1
 98
    0
  0
HATCH
  5
11E
100
AcDbEntity
  8
eksist
  6
CONTINUOUS
 62
  251
370
   20
100
AcDbHatch
 10
0
 20
0
 30
0
210
0
220
0
230
1
  2
SOLID
 70
    1
 71
    0
 91
    1
 92
    0
 93
    4
 72
    1
 10
-11714.39949057535
 20
16480.56505432398
 11
-11714.39949057535
 21
16180.56505432398
 72
    1
 10
-11714.39949057535
 20
16180.56505432398
 11
-10284.39949057535
 21
16180.56505432398
 72
    1
 10
-10284.39949057535
 20
16180.56505432398
 11
-10284.39949057535
 21
16480.56505432398
 72
    1
 10
-10284.39949057535
 20
16480.56505432398
 11
-11714.39949057535
 21
16480.56505432398
 97
    0
 75
    0
 76
    1
 98
    0
  0
HATCH
  5
11F
100
AcDbEntity
  8
eksist
  6
CONTINUOUS
 62
  251
370
   20
100
AcDbHatch
 10
0
 20
0
 30
0
210
0
220
0
230
1
  2
SOLID
 70
    1
 71
    0
 91
    1
 92
    0
 93
    4
 72
    1
 10
-9314.399490575348
 20
16480.56505432398
 11
-9314.399490575348
 21
16180.56505432397
 72
    1
 10
-9314.399490575348
 20
16180.56505432397
 11
-8844.399490575344
 21
16180.56505432397
 72
    1
 10
-8844.399490575344
 20
16180.56505432397
 11
-8844.399490575344
 21
16480.56505432398
 72
    1
 10
-8844.399490575344
 20
16480.56505432398
 11
-9314.399490575348
 21
16480.56505432398
 97
    0
 75
    0
 76
    1
 98
    0
  0
HATCH
  5
120
100
AcDbEntity
  8
eksist
  6
CONTINUOUS
 62
  251
370
   20
100
AcDbHatch
 10
0
 20
0
 30
0
210
0
220
0
230
1
  2
SOLID
 70
    1
 71
    0
 91
    1
 92
    0
 93
    4
 72
    1
 10
-8114.399490575348
 20
16480.56505432398
 11
-8114.399490575348
 21
16180.56505432397
 72
    1
 10
-8114.399490575348
 20
16180.56505432397
 11
-7644.399490575346
 21
16180.56505432397
 72
    1
 10
-7644.399490575346
 20
16180.56505432397
 11
-7644.399490575346
 21
16480.56505432398
 72
    1
 10
-7644.399490575346
 20
16480.56505432398
 11
-8114.399490575348
 21
16480.56505432398
 97
    0
 75
    0
 76
    1
 98
    0
  0
HATCH
  5
121
100
AcDbEntity
  8
eksist
  6
CONTINUOUS
 62
  251
370
   20
100
AcDbHatch
 10
0
 20
0
 30
0
210
0
220
0
230
1
  2
SOLID
 70
    1
 71
    0
 91
    1
 92
    0
 93
    4
 72
    1
 10
-6914.399490575347
 20
16480.56505432398
 11
-6914.399490575347
 21
16180.56505432397
 72
    1
 10
-6914.399490575347
 20
16180.56505432397
 11
-3264.399490575347
 21
16180.56505432397
 72
    1
 10
-3264.399490575347
 20
16180.56505432397
 11
-2964.399490575344
 21
16480.56505432398
 72
    1
 10
-2964.399490575344
 20
16480.56505432398
 11
-6914.399490575347
 21
16480.56505432398
 97
    0
 75
    0
 76
    1
 98
    0
  0
LINE
  5
122
100
AcDbEntity
  8
eksist
  6
CONTINUOUS
 62
  256
370
   -1
100
AcDbLine
 10
-15804.39949057535
 20
16180.56505432398
 11
-15804.39949057535
 21
16480.56505432398
  0
LINE
  5
123
100
AcDbEntity
  8
eksist
  6
CONTINUOUS
 62
  256
370
   -1
100
AcDbLine
 10
-14354.39949057535
 20
16180.56505432398
 11
-14354.39949057535
 21
16480.56505432398
  0
LINE
  5
124
100
AcDbEntity
  8
eksist
  6
CONTINUOUS
 62
  256
370
   -1
100
AcDbLine
 10
-13164.39949057534
 20
16180.56505432398
 11
-13164.39949057534
 21
16480.56505432398
  0
LINE
  5
125
100
AcDbEntity
  8
eksist
  6
CONTINUOUS
 62
  256
370
   -1
100
AcDbLine
 10
-11714.39949057535
 20
16180.56505432398
 11
-11714.39949057535
 21
16480.56505432398
  0
LINE
  5
126
100
AcDbEntity
  8
eksist
  6
CONTINUOUS
 62
  256
370
   -1
100
AcDbLine
 10
-9314.399490575348
 20
16180.56505432397
 11
-9314.399490575348
 21
16480.56505432398
  0
LINE
  5
127
100
AcDbEntity
  8
eksist
  6
CONTINUOUS
 62
  256
370
   -1
100
AcDbLine
 10
-8844.399490575344
 20
16180.56505432397
 11
-8844.399490575344
 21
16480.56505432398
  0
LINE
  5
128
100
AcDbEntity
  8
eksist
  6
CONTINUOUS
 62
  256
370
   -1
100
AcDbLine
 10
-8114.399490575348
 20
16180.56505432397
 11
-8114.399490575348
 21
16480.56505432398
  0
LINE
  5
129
100
AcDbEntity
  8
eksist
  6
CONTINUOUS
 62
  256
370
   -1
100
AcDbLine
 10
-7644.399490575346
 20
16180.56505432397
 11
-7644.399490575346
 21
16480.56505432398
  0
LINE
  5
12A
100
AcDbEntity
  8
eksist
  6
CONTINUOUS
 62
  256
370
   -1
100
AcDbLine
 10
-6914.399490575347
 20
16180.56505432397
 11
-6914.399490575347
 21
16480.56505432398
  0
LWPOLYLINE
  5
12B
100
AcDbEntity
  8
eksist
  6
CONTINUOUS
 62
  256
370
   -1
100
AcDbPolyline
 90
    2
 70
    0
 43
0
 10
-2964.399490575344
 20
16480.56505432398
 10
-6914.399490575347
 20
16480.56505432398
  0
LWPOLYLINE
  5
12C
100
AcDbEntity
  8
eksist
  6
CONTINUOUS
 62
  256
370
   -1
100
AcDbPolyline
 90
    2
 70
    0
 43
0
 10
-7644.399490575346
 20
16480.56505432398
 10
-8114.399490575348
 20
16480.56505432398
  0
LWPOLYLINE
  5
12D
100
AcDbEntity
  8
eksist
  6
CONTINUOUS
 62
  256
370
   -1
100
AcDbPolyline
 90
    2
 70
    0
 43
0
 10
-8844.399490575344
 20
16480.56505432398
 10
-9314.399490575348
 20
16480.56505432398
  0
LWPOLYLINE
  5
12E
100
AcDbEntity
  8
eksist
  6
CONTINUOUS
 62
  256
370
   -1
100
AcDbPolyline
 90
    2
 70
    0
 43
0
 10
-10284.39949057535
 20
16480.56505432398
 10
-11714.39949057534
 20
16480.56505432398
  0
LWPOLYLINE
  5
12F
100
AcDbEntity
  8
eksist
  6
CONTINUOUS
 62
  256
370
   -1
100
AcDbPolyline
 90
    2
 70
    0
 43
0
 10
-13164.39949057534
 20
16480.56505432398
 10
-14354.39949057534
 20
16480.56505432398
  0
LWPOLYLINE
  5
130
100
AcDbEntity
  8
eksist
  6
CONTINUOUS
 62
  256
370
   -1
100
AcDbPolyline
 90
    2
 70
    0
 43
0
 10
-15804.39949057534
 20
16480.56505432398
 10
-16514.39949057535
 20
16480.56505432398
  0
LWPOLYLINE
  5
131
100
AcDbEntity
  8
eksist
  6
CONTINUOUS
 62
  256
370
   -1
100
AcDbPolyline
 90
    2
 70
    0
 43
0
 10
-16214.39949057535
 20
16180.56505432398
 10
-15804.39949057535
 20
16180.56505432398
  0
LWPOLYLINE
  5
132
100
AcDbEntity
  8
eksist
  6
CONTINUOUS
 62
  256
370
   -1
100
AcDbPolyline
 90
    2
 70
    0
 43
0
 10
-14254.39949057534
 20
16180.56505432398
 10
-13164.39949057534
 20
16180.56505432398
  0
LWPOLYLINE
  5
133
100
AcDbEntity
  8
eksist
  6
CONTINUOUS
 62
  256
370
   -1
100
AcDbPolyline
 90
    2
 70
    0
 43
0
 10
-11714.39949057535
 20
16180.56505432398
 10
-10494.39949057535
 20
16180.56505432398
  0
LWPOLYLINE
  5
134
100
AcDbEntity
  8
eksist
  6
CONTINUOUS
 62
  256
370
   -1
100
AcDbPolyline
 90
    2
 70
    0
 43
0
 10
-10374.39949057535
 20
16180.56505432398
 10
-10284.39949057535
 20
16180.56505432398
  0
LWPOLYLINE
  5
135
100
AcDbEntity
  8
eksist
  6
CONTINUOUS
 62
  256
370
   -1
100
AcDbPolyline
 90
    2
 70
    0
 43
0
 10
-9314.399490575348
 20
16180.56505432397
 10
-9224.399490575348
 20
16180.56505432397
  0
LWPOLYLINE
  5
136
100
AcDbEntity
  8
eksist
  6
CONTINUOUS
 62
  256
370
   -1
100
AcDbPolyline
 90
    2
 70
    0
 43
0
 10
-9144.399490575346
 20
16180.56505432397
 10
-8844.399490575344
 20
16180.56505432397
  0
LWPOLYLINE
  5
137
100
AcDbEntity
  8
eksist
  6
CONTINUOUS
 62
  256
370
   -1
100
AcDbPolyline
 90
    2
 70
    0
 43
0
 10
-8114.399490575348
 20
16180.56505432397
 10
-8024.399490575348
 20
16180.56505432397
  0
LWPOLYLINE
  5
138
100
AcDbEntity
  8
eksist
  6
CONTINUOUS
 62
  256
370
   -1
100
AcDbPolyline
 90
    2
 70
    0
 43
0
 10
-7944.399490575348
 20
16180.56505432397
 10
-7644.399490575345
 20
16180.56505432397
  0
LWPOLYLINE
  5
139
100
AcDbEntity
  8
eksist
  6
CONTINUOUS
 62
  256
370
   -1
100
AcDbPolyline
 90
    2
 70
    0
 43
0
 10
-6914.399490575347
 20
16180.56505432397
 10
-5484.399490575345
 20
16180.56505432397
  0
LWPOLYLINE
  5
13A
100
AcDbEntity
  8
eksist
  6
CONTINUOUS
 62
  256
370
   -1
100
AcDbPolyline
 90
    2
 70
    0
 43
0
 10
-5364.399490575346
 20
16180.56505432397
 10
-3264.399490575347
 20
16180.56505432397
  0
LINE
  5
13B
100
AcDbEntity
  8
eksist
  6
CONTINUOUS
 62
  256
370
   -1
100
AcDbLine
 10
-6914.399490575347
 20
16480.56505432398
 11
-7644.399490575346
 21
16480.56505432398
  0
LINE
  5
13C
100
AcDbEntity
  8
eksist
  6
CONTINUOUS
 62
  256
370
   -1
100
AcDbLine
 10
-7644.399490575346
 20
16180.56505432397
 11
-6914.399490575347
 21
16180.56505432397
  0
INSERT
  5
13D
100
AcDbEntity
  8
eksist
  6
CONTINUOUS
 62
  256
370
   -1
100
AcDbBlockReference
  2
toilet_vind_glas
 10
-7279.399490575347
 20
16315.56505357892
 30
0
 41
-1
 42
1
 43
0
 50
180
 70
    1
 71
    1
 44
0
 45
0
  0
LINE
  5
13E
100
AcDbEntity
  8
eksist
  6
CONTINUOUS
 62
  256
370
   -1
100
AcDbLine
 10
-8114.399490575348
 20
16480.56505432398
 11
-8844.399490575344
 21
16480.56505432398
  0
LINE
  5
13F
100
AcDbEntity
  8
eksist
  6
CONTINUOUS
 62
  256
370
   -1
100
AcDbLine
 10
-8844.399490575344
 20
16180.56505432397
 11
-8114.399490575348
 21
16180.56505432397
  0
INSERT
  5
140
100
AcDbEntity
  8
eksist
  6
CONTINUOUS
 62
  256
370
   -1
100
AcDbBlockReference
  2
toilet_vind_glas
 10
-8479.399490575346
 20
16315.56505357892
 30
0
 41
-1
 42
1
 43
0
 50
180
 70
    1
 71
    1
 44
0
 45
0
  0
INSERT
  5
141
100
AcDbEntity
  8
eksist
  6
CONTINUOUS
 62
  256
370
   -1
100
AcDbBlockReference
  2
indgang_glas
 10
-9799.399490575346
 20
16365.56505432398
 30
0
 41
-1
 42
1
 43
0
 50
180
 70
    1
 71
    1
 44
0
 45
0
  0
LINE
  5
142
100
AcDbEntity
  8
eksist
  6
CONTINUOUS
 62
  256
370
   -1
100
AcDbLine
 10
-11714.39949057535
 20
16480.56505432398
 11
-13164.39949057534
 21
16480.56505432398
  0
LINE
  5
143
100
AcDbEntity
  8
eksist
  6
CONTINUOUS
 62
  256
370
   -1
100
AcDbLine
 10
-13164.39949057534
 20
16180.56505432398
 11
-11714.39949057535
 21
16180.56505432398
  0
INSERT
  5
144
100
AcDbEntity
  8
eksist
  6
CONTINUOUS
 62
  256
370
   -1
100
AcDbBlockReference
  2
inner-win
 10
-12439.39949057535
 20
16315.56505357892
 30
0
 41
-1
 42
1
 43
0
 50
180
 70
    1
 71
    1
 44
0
 45
0
  0
LINE
  5
145
100
AcDbEntity
  8
eksist
  6
CONTINUOUS
 62
  256
370
   -1
100
AcDbLine
 10
-14354.39949057535
 20
16480.56505432398
 11
-15804.39949057535
 21
16480.56505432398
  0
LINE
  5
146
100
AcDbEntity
  8
eksist
  6
CONTINUOUS
 62
  256
370
   -1
100
AcDbLine
 10
-15804.39949057535
 20
16180.56505432398
 11
-14354.39949057535
 21
16180.56505432398
  0
INSERT
  5
147
100
AcDbEntity
  8
eksist
  6
CONTINUOUS
 62
  256
370
   -1
100
AcDbBlockReference
  2
inner-win
 10
-15079.39949057535
 20
16315.56505357892
 30
0
 41
-1
 42
1
 43
0
 50
180
 70
    1
 71
    1
 44
0
 45
0
  0
INSERT
  5
148
100
AcDbEntity
  8
eksist
  6
CONTINUOUS
 62
  256
370
   -1
100
AcDbBlockReference
  2
hoved_indgang
 10
-9799.399490575346
 20
16180.56505432398
 30
0
 41
1
 42
1
 43
0
 50
180
 70
    1
 71
    1
 44
0
 45
0
  0
HATCH
  5
149
100
AcDbEntity
  8
eksist
  6
CONTINUOUS
 62
  251
370
   20
100
AcDbHatch
 10
0
 20
0
 30
0
210
0
220
0
230
1
  2
SOLID
 70
    1
 71
    0
 91
    1
 92
    0
 93
    4
 72
    1
 10
-16514.39949057535
 20
16480.56505432398
 11
-16514.39949057535
 21
8570.565054323979
 72
    1
 10
-16514.39949057535
 20
8570.565054323979
 11
-16214.39949057535
 21
8870.565054323979
 72
    1
 10
-16214.39949057535
 20
8870.565054323979
 11
-16214.39949057535
 21
16180.56505432398
 72
    1
 10
-16214.39949057535
 20
16180.56505432398
 11
-16514.39949057535
 21
16480.56505432398
 97
    0
 75
    0
 76
    1
 98
    0
  0
LWPOLYLINE
  5
14A
100
AcDbEntity
  8
eksist
  6
CONTINUOUS
 62
  256
370
   -1
100
AcDbPolyline
 90
    2
 70
    0
 43
0
 10
-16514.39949057535
 20
16480.56505432398
 10
-16514.39949057535
 20
8570.565054323979
  0
LWPOLYLINE
  5
14B
100
AcDbEntity
  8
eksist
  6
CONTINUOUS
 62
  256
370
   -1
100
AcDbPolyline
 90
    2
 70
    0
 43
0
 10
-16214.39949057535
 20
8870.565054323979
 10
-16214.39949057535
 20
12960.56505432398
  0
LWPOLYLINE
  5
14C
100
AcDbEntity
  8
eksist
  6
CONTINUOUS
 62
  256
370
   -1
100
AcDbPolyline
 90
    2
 70
    0
 43
0
 10
-16214.39949057535
 20
13080.56505432398
 10
-16214.39949057535
 20
16180.56505432398
  0
HATCH
  5
14D
100
AcDbEntity
  8
eksist
  6
CONTINUOUS
 62
  251
370
   20
100
AcDbHatch
 10
0
 20
0
 30
0
210
0
220
0
230
1
  2
SOLID
 70
    1
 71
    0
 91
    1
 92
    0
 93
    4
 72
    1
 10
-5534.399490575346
 20
13080.56505432398
 11
-5534.399490575346
 21
12960.56505432398
 72
    1
 10
-5534.399490575346
 20
12960.56505432398
 11
-3264.399490575346
 21
12960.56505432398
 72
    1
 10
-3264.399490575346
 20
12960.56505432398
 11
-3264.399490575346
 21
13080.56505432398
 72
    1
 10
-3264.399490575346
 20
13080.56505432398
 11
-5534.399490575346
 21
13080.56505432398
 97
    0
 75
    0
 76
    1
 98
    0
  0
LINE
  5
14E
100
AcDbEntity
  8
eksist
  6
CONTINUOUS
 62
  256
370
   -1
100
AcDbLine
 10
-6314.399490575346
 20
12960.56505432398
 11
-6314.399490575346
 21
13080.56505432398
  0
LINE
  5
14F
100
AcDbEntity
  8
eksist
  6
CONTINUOUS
 62
  256
370
   -1
100
AcDbLine
 10
-5534.399490575346
 20
12960.56505432398
 11
-5534.399490575346
 21
13080.56505432398
  0
LWPOLYLINE
  5
150
100
AcDbEntity
  8
eksist
  6
CONTINUOUS
 62
  256
370
   -1
100
AcDbPolyline
 90
    2
 70
    0
 43
0
 10
-3264.399490575346
 20
13080.56505432398
 10
-5364.399490575346
 20
13080.56505432398
  0
LWPOLYLINE
  5
151
100
AcDbEntity
  8
eksist
  6
CONTINUOUS
 62
  256
370
   -1
100
AcDbPolyline
 90
    2
 70
    0
 43
0
 10
-5484.399490575346
 20
13080.56505432398
 10
-5534.399490575346
 20
13080.56505432398
  0
LWPOLYLINE
  5
152
100
AcDbEntity
  8
eksist
  6
CONTINUOUS
 62
  256
370
   -1
100
AcDbPolyline
 90
    2
 70
    0
 43
0
 10
-5534.399490575346
 20
12960.56505432398
 10
-3264.399490575346
 20
12960.56505432398
  0
INSERT
  5
153
100
AcDbEntity
  8
eksist
  6
CONTINUOUS
 62
  256
370
   -1
100
AcDbBlockReference
  2
bryg_sov_dør
 10
-5924.399490575347
 20
12960.56505432398
 30
0
 41
1
 42
1
 43
0
 50
180
 70
    1
 71
    1
 44
0
 45
0
  0
HATCH
  5
154
100
AcDbEntity
  8
eksist
  6
CONTINUOUS
 62
  251
370
   20
100
AcDbHatch
 10
0
 20
0
 30
0
210
0
220
0
230
1
  2
SOLID
 70
    1
 71
    0
 91
    1
 92
    0
 93
    4
 72
    1
 10
-5364.399490575346
 20
16180.56505432397
 11
-5484.399490575346
 21
16180.56505432397
 72
    1
 10
-5484.399490575346
 20
16180.56505432397
 11
-5484.399490575346
 21
13910.56505432398
 72
    1
 10
-5484.399490575346
 20
13910.56505432398
 11
-5364.399490575346
 21
13910.56505432398
 72
    1
 10
-5364.399490575346
 20
13910.56505432398
 11
-5364.399490575346
 21
16180.56505432397
 97
    0
 75
    0
 76
    1
 98
    0
  0
HATCH
  5
155
100
AcDbEntity
  8
eksist
  6
CONTINUOUS
 62
  251
370
   20
100
AcDbHatch
 10
0
 20
0
 30
0
210
0
220
0
230
1
  2
SOLID
 70
    1
 71
    0
 91
    1
 92
    0
 93
    4
 72
    1
 10
-5364.399490575346
 20
13130.56505432398
 11
-5484.399490575346
 21
13130.56505432398
 72
    1
 10
-5484.399490575346
 20
13130.56505432398
 11
-5484.399490575346
 21
13080.56505432398
 72
    1
 10
-5484.399490575346
 20
13080.56505432398
 11
-5364.399490575346
 21
13080.56505432398
 72
    1
 10
-5364.399490575346
 20
13080.56505432398
 11
-5364.399490575346
 21
13130.56505432398
 97
    0
 75
    0
 76
    1
 98
    0
  0
LINE
  5
156
100
AcDbEntity
  8
eksist
  6
CONTINUOUS
 62
  256
370
   -1
100
AcDbLine
 10
-5484.399490575346
 20
13910.56505432398
 11
-5364.399490575346
 21
13910.56505432398
  0
LINE
  5
157
100
AcDbEntity
  8
eksist
  6
CONTINUOUS
 62
  256
370
   -1
100
AcDbLine
 10
-5484.399490575346
 20
13130.56505432398
 11
-5364.399490575346
 21
13130.56505432398
  0
LWPOLYLINE
  5
158
100
AcDbEntity
  8
eksist
  6
CONTINUOUS
 62
  256
370
   -1
100
AcDbPolyline
 90
    2
 70
    0
 43
0
 10
-5484.399490575346
 20
16180.56505432397
 10
-5484.399490575346
 20
14260.56505432398
  0
LWPOLYLINE
  5
159
100
AcDbEntity
  8
eksist
  6
CONTINUOUS
 62
  256
370
   -1
100
AcDbPolyline
 90
    2
 70
    0
 43
0
 10
-5484.399490575346
 20
14180.56505432398
 10
-5484.399490575346
 20
13910.56505432398
  0
LWPOLYLINE
  5
15A
100
AcDbEntity
  8
eksist
  6
CONTINUOUS
 62
  256
370
   -1
100
AcDbPolyline
 90
    2
 70
    0
 43
0
 10
-5484.399490575346
 20
13130.56505432398
 10
-5484.399490575346
 20
13080.56505432398
  0
LWPOLYLINE
  5
15B
100
AcDbEntity
  8
eksist
  6
CONTINUOUS
 62
  256
370
   -1
100
AcDbPolyline
 90
    2
 70
    0
 43
0
 10
-5364.399490575346
 20
13080.56505432398
 10
-5364.399490575346
 20
13130.56505432398
  0
LWPOLYLINE
  5
15C
100
AcDbEntity
  8
eksist
  6
CONTINUOUS
 62
  256
370
   -1
100
AcDbPolyline
 90
    2
 70
    0
 43
0
 10
-5364.399490575346
 20
13910.56505432398
 10
-5364.399490575346
 20
16180.56505432397
  0
INSERT
  5
15D
100
AcDbEntity
  8
eksist
  6
CONTINUOUS
 62
  256
370
   -1
100
AcDbBlockReference
  2
bryg_sov_dør
 10
-5364.399490575346
 20
13520.56505432398
 30
0
 41
1
 42
1
 43
0
 50
270
 70
    1
 71
    1
 44
0
 45
0
  0
HATCH
  5
15E
100
AcDbEntity
  8
eksist
  6
CONTINUOUS
 62
  251
370
   20
100
AcDbHatch
 10
0
 20
0
 30
0
210
0
220
0
230
1
  2
SOLID
 70
    1
 71
    0
 91
    1
 92
    0
 93
    4
 72
    1
 10
-8024.399490575348
 20
14900.56505432398
 11
-8024.399490575348
 21
14980.56505432398
 72
    1
 10
-8024.399490575348
 20
14980.56505432398
 11
-8152.999078941015
 21
14980.56505432398
 72
    1
 10
-8152.999078941015
 20
14980.56505432398
 11
-8152.999078941015
 21
14900.56505432398
 72
    1
 10
-8152.999078941015
 20
14900.56505432398
 11
-8024.399490575348
 21
14900.56505432398
 97
    0
 75
    0
 76
    1
 98
    0
  0
HATCH
  5
15F
100
AcDbEntity
  8
eksist
  6
CONTINUOUS
 62
  251
370
   20
100
AcDbHatch
 10
0
 20
0
 30
0
210
0
220
0
230
1
  2
SOLID
 70
    1
 71
    0
 91
    1
 92
    0
 93
    4
 72
    1
 10
-8932.999078941015
 20
14900.56505432398
 11
-8932.999078941015
 21
14980.56505432398
 72
    1
 10
-8932.999078941015
 20
14980.56505432398
 11
-9144.399490575348
 21
14980.56505432398
 72
    1
 10
-9144.399490575348
 20
14980.56505432398
 11
-9224.399490575348
 21
14900.56505432398
 72
    1
 10
-9224.399490575348
 20
14900.56505432398
 11
-8932.999078941015
 21
14900.56505432398
 97
    0
 75
    0
 76
    1
 98
    0
  0
LINE
  5
160
100
AcDbEntity
  8
eksist
  6
CONTINUOUS
 62
  256
370
   -1
100
AcDbLine
 10
-8152.999078941015
 20
14980.56505432398
 11
-8152.999078941015
 21
14900.56505432398
  0
LINE
  5
161
100
AcDbEntity
  8
eksist
  6
CONTINUOUS
 62
  256
370
   -1
100
AcDbLine
 10
-8932.999078941015
 20
14980.56505432398
 11
-8932.999078941015
 21
14900.56505432398
  0
LWPOLYLINE
  5
162
100
AcDbEntity
  8
eksist
  6
CONTINUOUS
 62
  256
370
   -1
100
AcDbPolyline
 90
    2
 70
    0
 43
0
 10
-8024.399490575348
 20
14980.56505432398
 10
-8152.999078941015
 20
14980.56505432398
  0
LWPOLYLINE
  5
163
100
AcDbEntity
  8
eksist
  6
CONTINUOUS
 62
  256
370
   -1
100
AcDbPolyline
 90
    2
 70
    0
 43
0
 10
-8932.999078941015
 20
14980.56505432398
 10
-9144.399490575348
 20
14980.56505432398
  0
LWPOLYLINE
  5
164
100
AcDbEntity
  8
eksist
  6
CONTINUOUS
 62
  256
370
   -1
100
AcDbPolyline
 90
    2
 70
    0
 43
0
 10
-9224.399490575348
 20
14900.56505432398
 10
-8932.999078941015
 20
14900.56505432398
  0
LWPOLYLINE
  5
165
100
AcDbEntity
  8
eksist
  6
CONTINUOUS
 62
  256
370
   -1
100
AcDbPolyline
 90
    2
 70
    0
 43
0
 10
-8152.999078941015
 20
14900.56505432398
 10
-8024.399490575348
 20
14900.56505432398
  0
INSERT
  5
166
100
AcDbEntity
  8
eksist
  6
CONTINUOUS
 62
  256
370
   -1
100
AcDbBlockReference
  2
toiletdør
 10
-8542.999078941013
 20
14900.56505432398
 30
0
 41
1
 42
1
 43
0
 50
180
 70
    1
 71
    1
 44
0
 45
0
  0
HATCH
  5
167
100
AcDbEntity
  8
eksist
  6
CONTINUOUS
 62
  251
370
   20
100
AcDbHatch
 10
0
 20
0
 30
0
210
0
220
0
230
1
  2
SOLID
 70
    1
 71
    0
 91
    1
 92
    0
 93
    4
 72
    1
 10
-9144.399490575348
 20
14980.56505432398
 11
-9144.399490575348
 21
16180.56505432398
 72
    1
 10
-9144.399490575348
 20
16180.56505432398
 11
-9224.399490575348
 21
16180.56505432398
 72
    1
 10
-9224.399490575348
 20
16180.56505432398
 11
-9224.399490575348
 21
14900.56505432398
 72
    1
 10
-9224.399490575348
 20
14900.56505432398
 11
-9144.399490575348
 21
14980.56505432398
 97
    0
 75
    0
 76
    1
 98
    0
  0
LWPOLYLINE
  5
168
100
AcDbEntity
  8
eksist
  6
CONTINUOUS
 62
  256
370
   -1
100
AcDbPolyline
 90
    2
 70
    0
 43
0
 10
-9144.399490575348
 20
14980.56505432398
 10
-9144.399490575348
 20
16180.56505432398
  0
LWPOLYLINE
  5
169
100
AcDbEntity
  8
eksist
  6
CONTINUOUS
 62
  256
370
   -1
100
AcDbPolyline
 90
    2
 70
    0
 43
0
 10
-9224.399490575348
 20
16180.56505432398
 10
-9224.399490575348
 20
14900.56505432398
  0
HATCH
  5
16A
100
AcDbEntity
  8
eksist
  6
CONTINUOUS
 62
  251
370
   20
100
AcDbHatch
 10
0
 20
0
 30
0
210
0
220
0
230
1
  2
SOLID
 70
    1
 71
    0
 91
    1
 92
    0
 93
    4
 72
    1
 10
-7944.399490575348
 20
14260.56505432398
 11
-7944.399490575348
 21
14180.56505432398
 72
    1
 10
-7944.399490575348
 20
14180.56505432398
 11
-6975.8059788029
 21
14180.56505432398
 72
    1
 10
-6975.8059788029
 20
14180.56505432398
 11
-6975.8059788029
 21
14260.56505432398
 72
    1
 10
-6975.8059788029
 20
14260.56505432398
 11
-7944.399490575348
 21
14260.56505432398
 97
    0
 75
    0
 76
    1
 98
    0
  0
HATCH
  5
16B
100
AcDbEntity
  8
eksist
  6
CONTINUOUS
 62
  251
370
   20
100
AcDbHatch
 10
0
 20
0
 30
0
210
0
220
0
230
1
  2
SOLID
 70
    1
 71
    0
 91
    1
 92
    0
 93
    4
 72
    1
 10
-6195.8059788029
 20
14260.56505432398
 11
-6195.8059788029
 21
14180.56505432398
 72
    1
 10
-6195.8059788029
 20
14180.56505432398
 11
-5484.399490575346
 21
14180.56505432398
 72
    1
 10
-5484.399490575346
 20
14180.56505432398
 11
-5484.399490575346
 21
14260.56505432398
 72
    1
 10
-5484.399490575346
 20
14260.56505432398
 11
-6195.8059788029
 21
14260.56505432398
 97
    0
 75
    0
 76
    1
 98
    0
  0
LINE
  5
16C
100
AcDbEntity
  8
eksist
  6
CONTINUOUS
 62
  256
370
   -1
100
AcDbLine
 10
-6975.8059788029
 20
14180.56505432398
 11
-6975.8059788029
 21
14260.56505432398
  0
LINE
  5
16D
100
AcDbEntity
  8
eksist
  6
CONTINUOUS
 62
  256
370
   -1
100
AcDbLine
 10
-6195.8059788029
 20
14180.56505432398
 11
-6195.8059788029
 21
14260.56505432398
  0
LWPOLYLINE
  5
16E
100
AcDbEntity
  8
eksist
  6
CONTINUOUS
 62
  256
370
   -1
100
AcDbPolyline
 90
    2
 70
    0
 43
0
 10
-7944.399490575348
 20
14180.56505432398
 10
-6975.8059788029
 20
14180.56505432398
  0
LWPOLYLINE
  5
16F
100
AcDbEntity
  8
eksist
  6
CONTINUOUS
 62
  256
370
   -1
100
AcDbPolyline
 90
    2
 70
    0
 43
0
 10
-6195.8059788029
 20
14180.56505432398
 10
-5484.399490575346
 20
14180.56505432398
  0
LWPOLYLINE
  5
170
100
AcDbEntity
  8
eksist
  6
CONTINUOUS
 62
  256
370
   -1
100
AcDbPolyline
 90
    2
 70
    0
 43
0
 10
-5484.399490575346
 20
14260.56505432398
 10
-6195.8059788029
 20
14260.56505432398
  0
LWPOLYLINE
  5
171
100
AcDbEntity
  8
eksist
  6
CONTINUOUS
 62
  256
370
   -1
100
AcDbPolyline
 90
    2
 70
    0
 43
0
 10
-6975.8059788029
 20
14260.56505432398
 10
-7944.399490575348
 20
14260.56505432398
  0
INSERT
  5
172
100
AcDbEntity
  8
eksist
  6
CONTINUOUS
 62
  256
370
   -1
100
AcDbBlockReference
  2
toiletdør
 10
-6585.805978802899
 20
14260.56505432398
 30
0
 41
1
 42
1
 43
0
 50
0
 70
    1
 71
    1
 44
0
 45
0
  0
LWPOLYLINE
  5
173
100
AcDbEntity
  8
eksist
  6
CONTINUOUS
 62
  256
370
   -1
100
AcDbPolyline
 90
    2
 70
    0
 43
0
 10
-16394.39949057535
 20
8570.565054323979
 10
-16514.39949057535
 20
8570.565054323979
  0
HATCH
  5
174
100
AcDbEntity
  8
eksist
  6
CONTINUOUS
 62
  251
370
   20
100
AcDbHatch
 10
0
 20
0
 30
0
210
0
220
0
230
1
  2
SOLID
 70
    1
 71
    0
 91
    1
 92
    0
 93
    4
 72
    1
 10
-13656.29613464433
 20
13080.56505432398
 11
-16214.39949057535
 21
13080.56505432398
 72
    1
 10
-16214.39949057535
 20
13080.56505432398
 11
-16214.39949057535
 21
12960.56505432398
 72
    1
 10
-16214.39949057535
 20
12960.56505432398
 11
-13656.29613464433
 21
12960.56505432398
 72
    1
 10
-13656.29613464433
 20
12960.56505432398
 11
-13656.29613464433
 21
13080.56505432398
 97
    0
 75
    0
 76
    1
 98
    0
  0
LWPOLYLINE
  5
175
100
AcDbEntity
  8
eksist
  6
CONTINUOUS
 62
  256
370
   -1
100
AcDbPolyline
 90
    2
 70
    0
 43
0
 10
-13656.29613464433
 20
13080.56505432398
 10
-16214.39949057535
 20
13080.56505432398
  0
LWPOLYLINE
  5
176
100
AcDbEntity
  8
eksist
  6
CONTINUOUS
 62
  256
370
   -1
100
AcDbPolyline
 90
    2
 70
    0
 43
0
 10
-16214.39949057535
 20
12960.56505432398
 10
-13656.29613464433
 20
12960.56505432398
  0
HATCH
  5
177
100
AcDbEntity
  8
eksist
  6
CONTINUOUS
 62
  251
370
   20
100
AcDbHatch
 10
0
 20
0
 30
0
210
0
220
0
230
1
  2
SOLID
 70
    1
 71
    0
 91
    1
 92
    0
 93
    4
 72
    1
 10
-14254.39949057534
 20
16180.56505432398
 11
-14374.39949057534
 21
16180.56505432398
 72
    1
 10
-14374.39949057534
 20
16180.56505432398
 11
-14374.39949057535
 21
15431.3047780647
 72
    1
 10
-14374.39949057535
 20
15431.3047780647
 11
-14254.39949057535
 21
15431.3047780647
 72
    1
 10
-14254.39949057535
 20
15431.3047780647
 11
-14254.39949057534
 21
16180.56505432398
 97
    0
 75
    0
 76
    1
 98
    0
  0
HATCH
  5
178
100
AcDbEntity
  8
eksist
  6
CONTINUOUS
 62
  251
370
   20
100
AcDbHatch
 10
0
 20
0
 30
0
210
0
220
0
230
1
  2
SOLID
 70
    1
 71
    0
 91
    1
 92
    0
 93
    4
 72
    1
 10
-14254.39949057535
 20
14651.3047780647
 11
-14374.39949057535
 21
14651.3047780647
 72
    1
 10
-14374.39949057535
 20
14651.3047780647
 11
-14374.39949057536
 21
13080.56505432398
 72
    1
 10
-14374.39949057536
 20
13080.56505432398
 11
-14254.39949057536
 21
13080.56505432398
 72
    1
 10
-14254.39949057536
 20
13080.56505432398
 11
-14254.39949057535
 21
14651.3047780647
 97
    0
 75
    0
 76
    1
 98
    0
  0
LINE
  5
179
100
AcDbEntity
  8
eksist
  6
CONTINUOUS
 62
  256
370
   -1
100
AcDbLine
 10
-14374.39949057535
 20
15431.3047780647
 11
-14254.39949057535
 21
15431.3047780647
  0
LINE
  5
17A
100
AcDbEntity
  8
eksist
  6
CONTINUOUS
 62
  256
370
   -1
100
AcDbLine
 10
-14374.39949057535
 20
14651.3047780647
 11
-14254.39949057535
 21
14651.3047780647
  0
LWPOLYLINE
  5
17B
100
AcDbEntity
  8
eksist
  6
CONTINUOUS
 62
  256
370
   -1
100
AcDbPolyline
 90
    2
 70
    0
 43
0
 10
-14254.39949057536
 20
13080.56505432398
 10
-14254.39949057535
 20
14651.3047780647
  0
LWPOLYLINE
  5
17C
100
AcDbEntity
  8
eksist
  6
CONTINUOUS
 62
  256
370
   -1
100
AcDbPolyline
 90
    2
 70
    0
 43
0
 10
-14254.39949057535
 20
15431.3047780647
 10
-14254.39949057534
 20
16180.56505432398
  0
LWPOLYLINE
  5
17D
100
AcDbEntity
  8
eksist
  6
CONTINUOUS
 62
  256
370
   -1
100
AcDbPolyline
 90
    2
 70
    0
 43
0
 10
-14374.39949057534
 20
16180.56505432398
 10
-14374.39949057535
 20
15431.3047780647
  0
LWPOLYLINE
  5
17E
100
AcDbEntity
  8
eksist
  6
CONTINUOUS
 62
  256
370
   -1
100
AcDbPolyline
 90
    2
 70
    0
 43
0
 10
-14374.39949057535
 20
14651.3047780647
 10
-14374.39949057536
 20
13080.56505432398
  0
LWPOLYLINE
  5
17F
100
AcDbEntity
  8
eksist
  6
CONTINUOUS
 62
  256
370
   -1
100
AcDbPolyline
 90
    2
 70
    0
 43
0
 10
-14374.39949057536
 20
13080.56505432398
 10
-14254.39949057536
 20
13080.56505432398
  0
INSERT
  5
180
100
AcDbEntity
  8
eksist
  6
CONTINUOUS
 62
  256
370
   -1
100
AcDbBlockReference
  2
bryg_sov_dør
 10
-14374.39949057535
 20
15041.3047780647
 30
0
 41
1
 42
1
 43
0
 50
89.99999999999982
 70
    1
 71
    1
 44
0
 45
0
  0
HATCH
  5
181
100
AcDbEntity
  8
eksist
  6
CONTINUOUS
 62
  251
370
   20
100
AcDbHatch
 10
0
 20
0
 30
0
210
0
220
0
230
1
  2
SOLID
 70
    1
 71
    0
 91
    1
 92
    0
 93
    4
 72
    1
 10
-7944.399490575348
 20
16180.56505432398
 11
-8024.399490575348
 21
16180.56505432398
 72
    1
 10
-8024.399490575348
 20
16180.56505432398
 11
-8024.399490575348
 21
14154.83714566959
 72
    1
 10
-8024.399490575348
 20
14154.83714566959
 11
-7944.399490575348
 21
14154.83714566959
 72
    1
 10
-7944.399490575348
 20
14154.83714566959
 11
-7944.399490575348
 21
16180.56505432398
 97
    0
 75
    0
 76
    1
 98
    0
  0
HATCH
  5
182
100
AcDbEntity
  8
eksist
  6
CONTINUOUS
 62
  251
370
   20
100
AcDbHatch
 10
0
 20
0
 30
0
210
0
220
0
230
1
  2
SOLID
 70
    1
 71
    0
 91
    1
 92
    0
 93
    4
 72
    1
 10
-7944.399490575348
 20
13374.83714566959
 11
-8024.399490575348
 21
13374.83714566959
 72
    1
 10
-8024.399490575348
 20
13374.83714566959
 11
-8024.399490575348
 21
13080.56505432398
 72
    1
 10
-8024.399490575348
 20
13080.56505432398
 11
-7944.399490575348
 21
12960.56505432398
 72
    1
 10
-7944.399490575348
 20
12960.56505432398
 11
-7944.399490575348
 21
13374.83714566959
 97
    0
 75
    0
 76
    1
 98
    0
  0
LINE
  5
183
100
AcDbEntity
  8
eksist
  6
CONTINUOUS
 62
  256
370
   -1
100
AcDbLine
 10
-8024.399490575348
 20
14154.83714566959
 11
-7944.399490575348
 21
14154.83714566959
  0
LINE
  5
184
100
AcDbEntity
  8
eksist
  6
CONTINUOUS
 62
  256
370
   -1
100
AcDbLine
 10
-8024.399490575348
 20
13374.83714566959
 11
-7944.399490575348
 21
13374.83714566959
  0
LWPOLYLINE
  5
185
100
AcDbEntity
  8
eksist
  6
CONTINUOUS
 62
  256
370
   -1
100
AcDbPolyline
 90
    2
 70
    0
 43
0
 10
-8024.399490575348
 20
16180.56505432398
 10
-8024.399490575348
 20
14980.56505432398
  0
LWPOLYLINE
  5
186
100
AcDbEntity
  8
eksist
  6
CONTINUOUS
 62
  256
370
   -1
100
AcDbPolyline
 90
    2
 70
    0
 43
0
 10
-8024.399490575348
 20
14900.56505432398
 10
-8024.399490575348
 20
14154.83714566959
  0
LWPOLYLINE
  5
187
100
AcDbEntity
  8
eksist
  6
CONTINUOUS
 62
  256
370
   -1
100
AcDbPolyline
 90
    2
 70
    0
 43
0
 10
-8024.399490575348
 20
13374.83714566959
 10
-8024.399490575348
 20
13080.56505432398
  0
LWPOLYLINE
  5
188
100
AcDbEntity
  8
eksist
  6
CONTINUOUS
 62
  256
370
   -1
100
AcDbPolyline
 90
    2
 70
    0
 43
0
 10
-7944.399490575348
 20
12960.56505432398
 10
-7944.399490575348
 20
13374.83714566959
  0
LWPOLYLINE
  5
189
100
AcDbEntity
  8
eksist
  6
CONTINUOUS
 62
  256
370
   -1
100
AcDbPolyline
 90
    2
 70
    0
 43
0
 10
-7944.399490575348
 20
14154.83714566959
 10
-7944.399490575348
 20
14180.56505432398
  0
LWPOLYLINE
  5
18A
100
AcDbEntity
  8
eksist
  6
CONTINUOUS
 62
  256
370
   -1
100
AcDbPolyline
 90
    2
 70
    0
 43
0
 10
-7944.399490575348
 20
14260.56505432398
 10
-7944.399490575348
 20
16180.56505432398
  0
INSERT
  5
18B
100
AcDbEntity
  8
eksist
  6
CONTINUOUS
 62
  256
370
   -1
100
AcDbBlockReference
  2
til_sovevæ
 10
-7944.399490575348
 20
13764.83714566959
 30
0
 41
-1
 42
1
 43
0
 50
270
 70
    1
 71
    1
 44
0
 45
0
  0
LWPOLYLINE
  5
18C
100
AcDbEntity
  8
eksist
  6
CONTINUOUS
 62
  256
370
   -1
100
AcDbPolyline
 90
    2
 70
    0
 43
0
 10
-11481.73214714461
 20
8870.565054323979
 10
-11481.73214714461
 20
8630.565054323979
  0
LWPOLYLINE
  5
18D
100
AcDbEntity
  8
00 Landinspektør
  6
CONTINUOUS
 62
  256
370
   -1
100
AcDbPolyline
 90
    3
 70
    0
 43
0
 10
-5412.124282013695
 20
-7664.16023283875
 10
-9651.283531151499
 20
-10311.18022905001
 10
-19132.43416306459
 20
-10325.1693966486
  0
LWPOLYLINE
  5
18E
100
AcDbEntity
  8
00 Landinspektør
  6
CONTINUOUS
 62
  256
370
   -1
100
AcDbPolyline
 90
    4
 70
    0
 43
0
 10
-20384.64449952634
 20
-11059.89334002356
 10
-8871.535978161717
 20
-11014.15302629757
 10
-5780.840077384573
 20
-10953.49126862874
 10
-3574.297837601238
 20
-9911.35291713665
  0
LWPOLYLINE
  5
18F
100
AcDbEntity
  8
00 Landinspektør
  6
CONTINUOUS
 62
  256
370
   -1
100
AcDbPolyline
 90
    4
 70
    0
 43
0
 10
3655.205736009934
 20
18160.26919636632
 10
129.6372548592135
 20
19035.21998593357
 10
-9607.30057483404
 20
19044.5312339065
 10
-22524.95847673833
 20
19029.0043375419
  0
LWPOLYLINE
  5
190
100
AcDbEntity
  8
00 Landinspektør
  6
CONTINUOUS
 62
  256
370
   -1
100
AcDbPolyline
 90
    5
 70
    0
 43
0
 10
-5316.121951232315
 20
-19534.24176392917
 42
-0.01158780453985994
 10
-3560.335542762943
 20
-10320.21359544489
 42
-0.02446796217029405
 10
-835.4446204051201
 20
823.4594731843754
 42
-0.02318356654832897
 10
2935.694997618208
 20
11575.29499000265
 42
-0.02170017943962097
 10
7353.672083395766
 20
21282.93211090294
 42
-0.02170017943962097
  0
LWPOLYLINE
  5
191
100
AcDbEntity
  8
00 Landinspektør
  6
CONTINUOUS
 62
  256
370
   -1
100
AcDbPolyline
 90
    5
 70
    0
 43
0
 10
657.9208686983329
 20
-20191.23977558773
 42
-0.012027763747449
 10
2385.194145500849
 20
-11148.46580808782
 42
-0.02485374871503503
 10
4887.855393959326
 20
-933.7249071422266
 42
-0.02136343880304096
 10
8475.294314584899
 20
9185.191141106552
 42
-0.02119294437806202
 10
12874.47231200611
 20
18884.60668775371
 42
-0.02119294437806202
  0
LWPOLYLINE
  5
192
100
AcDbEntity
  8
00 Landinspektør
  6
CONTINUOUS
 62
  256
370
   -1
100
AcDbPolyline
 90
    6
 70
    0
 43
0
 10
-10900.25349080704
 20
4113.003423346761
 10
-10785.38828591712
 20
3873.224390227813
 10
-11015.11869565827
 20
4352.782456575512
 10
-10900.25349080704
 20
4113.003423346761
 10
-11140.03252399711
 20
3998.138218605326
 10
-10660.47445757828
 20
4227.868628197999
  0
LWPOLYLINE
  5
193
100
AcDbEntity
  8
00 Landinspektør
  6
CONTINUOUS
 62
  256
370
   -1
100
AcDbPolyline
 90
    6
 70
    1
 43
0
 10
-5412.124282013654
 20
-7664.160232838738
 42
-0.03960728973964816
 10
1683.719723378192
 20
14727.24532485482
 10
-1871.440636879067
 20
18248.31956593717
 10
-19163.98863625942
 20
18229.11827286022
 10
-19132.43416306459
 20
-10325.1693966486
 10
-9651.283531151499
 20
-10311.18022905001
  0
LWPOLYLINE
  5
194
100
AcDbEntity
  8
00 Landinspektør
  6
CONTINUOUS
 62
  256
370
   -1
100
AcDbPolyline
 90
    2
 70
    0
 43
0
 10
3655.205736009934
 20
18160.26919636632
 10
5133.049843836347
 20
16682.4250885367
  0
MTEXT
  5
195
100
AcDbEntity
  8
00 Landinspektør
  6
CONTINUOUS
 62
  256
370
   -1
100
AcDbMText
 10
-11693.59066176149
 20
18770.22591943827
 30
0
 40
625
 41
6788.19508730347
 71
    4
 72
    5
  1
{Mosestedet 57}
  7
erstellter_stil_1
210
0
220
0
230
1
 50
0
 73
    1
 44
1
  0
MTEXT
  5
196
100
AcDbEntity
  8
00 Landinspektør
  6
CONTINUOUS
 62
  256
370
   -1
100
AcDbMText
 10
1469.64629002092
 20
-808.7765050089952
 30
0
 40
625
 41
5347.222865081209
 71
    4
 72
    5
  1
{Mosestedet}
  7
erstellter_stil_1
210
0
220
0
230
1
 50
0
 73
    1
 44
1
  0
MTEXT
  5
197
100
AcDbEntity
  8
00 Landinspektør
  6
CONTINUOUS
 62
  256
370
   -1
100
AcDbMText
 10
-10938.30358785178
 20
4546.706018070572
 30
0
 40
325
 41
1372.222222222246
 71
    7
 72
    5
  1
{50.99}
  7
erstellter_stil_1
210
0
220
0
230
1
 50
0
 73
    1
 44
1
  0
MTEXT
  5
198
100
AcDbEntity
  8
00 Landinspektør
  6
CONTINUOUS
 62
  256
370
   -1
100
AcDbMText
 10
-5353.742499392628
 20
-8332.36616014183
 30
0
 40
625.0000000000001
 41
15555.55542305453
 71
    4
 72
    5
  1
{Skel i henhold til landmålertegning}
  7
erstellter_stil_1
210
0
220
0
230
1
 50
0
 73
    1
 44
1
  0
DIMENSION
  5
199
100
AcDbEntity
  8
dimensions
  6
CONTINUOUS
 62
  256
370
   -1
100
AcDbDimension
  2
*D1
 10
-2964.399490575346
 20
17529.19446178836
 30
0
 11
-9739.399490575348
 21
17691.69446178836
 31
0
 70
   32
  1
<>
 71
    5
  3
ERSTELLTER_STIL__2
 53
0
210
0
220
0
230
1
100
AcDbAlignedDimension
 13
-16514.39949057535
 23
16480.56505432398
 33
0
 14
-2964.399490575346
 24
16480.56505432398
 34
0
100
AcDbRotatedDimension
  0
DIMENSION
  5
19A
100
AcDbEntity
  8
dimensions
  6
CONTINUOUS
 62
  256
370
   -1
100
AcDbDimension
  2
*D2
 10
-2148.545268979158
 20
16480.56505432398
 30
0
 11
-2311.045268979158
 21
12525.56505432398
 31
0
 70
   32
  1
<>
 71
    5
  3
ERSTELLTER_STIL__1
 53
0
210
0
220
0
230
1
100
AcDbAlignedDimension
 13
-2964.399490575346
 23
8570.565054323979
 33
0
 14
-2964.399490575346
 24
16480.56505432398
 34
0
 50
90
100
AcDbRotatedDimension
  0
MTEXT
  5
19B
100
AcDbEntity
  8
anvendelse
  6
CONTINUOUS
 62
  256
370
   -1
100
AcDbMText
 10
-14364.69628448341
 20
11151.72086070481
 30
0
 40
240
 41
933.3332824528169
 71
    7
 72
    5
  1
{Stue}
  7
erstellter_stil_2
210
0
220
0
230
1
 50
0
 73
    1
 44
1
  0
MTEXT
  5
19C
100
AcDbEntity
  8
anvendelse
  6
CONTINUOUS
 62
  256
370
   -1
100
AcDbMText
 10
-5636.895077381975
 20
10049.26134847311
 30
0
 40
240
 41
1493.333456762263
 71
    7
 72
    5
  1
{Værelse}
  7
erstellter_stil_2
210
0
220
0
230
1
 50
0
 73
    1
 44
1
  0
MTEXT
  5
19D
100
AcDbEntity
  8
anvendelse
  6
CONTINUOUS
 62
  256
370
   -1
100
AcDbMText
 10
-4993.520877231168
 20
14699.44377519053
 30
0
 40
240
 41
986.6667900955935
 71
    7
 72
    5
  1
{Gæst}
  7
erstellter_stil_2
210
0
220
0
230
1
 50
0
 73
    1
 44
1
  0
MTEXT
  5
19E
100
AcDbEntity
  8
anvendelse
  6
CONTINUOUS
 62
  256
370
   -1
100
AcDbMText
 10
-7281.073588878486
 20
15435.03801400558
 30
0
 40
240
 41
773.3333333333439
 71
    7
 72
    5
  1
{Bad}
  7
erstellter_stil_2
210
0
220
0
230
1
 50
0
 73
    1
 44
1
  0
MTEXT
  5
19F
100
AcDbEntity
  8
anvendelse
  6
CONTINUOUS
 62
  256
370
   -1
100
AcDbMText
 10
-13428.87150143065
 20
14691.10372458763
 30
0
 40
240
 41
1386.66666666668
 71
    7
 72
    5
  1
{Køkken}
  7
erstellter_stil_2
210
0
220
0
230
1
 50
0
 73
    1
 44
1
  0
LINE
  5
1A0
100
AcDbEntity
  8
tagudhæng
  6
CONTINUOUS
 62
  256
370
   -1
100
AcDbLine
 10
-2764.399490575344
 20
16680.56505432398
 11
-16714.39949057534
 21
16680.56505432398
  0
LINE
  5
1A1
100
AcDbEntity
  8
tagudhæng
  6
CONTINUOUS
 62
  256
370
   -1
100
AcDbLine
 10
-16714.39949057534
 20
16680.56505432398
 11
-16714.39949057534
 21
8170.565054323978
  0
LINE
  5
1A2
100
AcDbEntity
  8
tagudhæng
  6
CONTINUOUS
 62
  256
370
   -1
100
AcDbLine
 10
-2764.399490575344
 20
16680.56505432398
 11
-2764.399490575345
 21
8170.565054323978
  0
LINE
  5
1A3
100
AcDbEntity
  8
tagudhæng
  6
ByLayer
 62
  256
370
   -1
100
AcDbLine
 10
-16714.39949057534
 20
8170.565054323978
 11
-2764.399490575345
 21
8170.565054323978
  0
MTEXT
  5
1A4
100
AcDbEntity
  8
anvendelse
  6
CONTINUOUS
 62
  256
370
   -1
100
AcDbMText
 10
-15835.56758347627
 20
14624.10004811704
 30
0
 40
240
 41
1013.333333333344
 71
    7
 72
    5
  1
{Bryg.}
  7
standard
210
0
220
0
230
1
 50
0
 73
    1
 44
1
  0
MTEXT
  5
1A5
100
AcDbEntity
  8
anvendelse
  6
CONTINUOUS
 62
  256
370
   -1
100
AcDbMText
 10
-9155.591369431329
 20
15444.1391267363
 30
0
 40
240
 41
1120.000000000003
 71
    7
 72
    5
  1
{Toilet}
  7
standard
210
0
220
0
230
1
 50
0
 73
    1
 44
1
  0
LINE
  5
1A6
100
AcDbEntity
  8
anvendelse
  6
ByLayer
 62
  256
370
   -1
100
AcDbLine
 10
-10442.7267210328
 20
13080.56505432398
 11
-10442.7267210328
 21
13835.63514279767
  0
LWPOLYLINE
  5
1A7
100
AcDbEntity
  8
anvendelse
  6
ByLayer
 62
  256
370
   -1
100
AcDbPolyline
 90
    4
 70
    1
 43
0
 10
-10442.7267210328
 20
13080.56505432398
 10
-10882.7267210328
 20
13080.56505432398
 10
-10882.7267210328
 20
13380.56505432398
 10
-10442.7267210328
 20
13380.56505432398
  0
LINE
  5
1A8
100
AcDbEntity
  8
eksist
  6
ByLayer
 62
  256
370
   -1
100
AcDbLine
 10
-8024.399490575348
 20
13080.56505432398
 11
-10882.7267210328
 21
13080.56505432398
  0
LINE
  5
1A9
100
AcDbEntity
  8
eksist
  6
ByLayer
 62
  256
370
   -1
100
AcDbLine
 10
-10882.7267210328
 20
13080.56505432398
 11
-10882.7267210328
 21
12960.56505432398
  0
LINE
  5
1AA
100
AcDbEntity
  8
eksist
  6
ByLayer
 62
  256
370
   -1
100
AcDbLine
 10
-10882.7267210328
 20
12960.56505432398
 11
-7944.399490575348
 21
12960.56505432398
  0
LINE
  5
1AB
100
AcDbEntity
  8
eksist
  6
CONTINUOUS
 62
  256
370
   -1
100
AcDbLine
 10
-10882.7267210328
 20
12960.56505432398
 11
-10882.7267210328
 21
13080.56505432398
  0
LINE
  5
1AC
100
AcDbEntity
  8
eksist
  6
ByLayer
 62
  256
370
   -1
100
AcDbLine
 10
-7944.399490575348
 20
12960.56505432398
 11
-10882.7267210328
 21
12960.56505432398
  0
LINE
  5
1AD
100
AcDbEntity
  8
eksist
  6
ByLayer
 62
  256
370
   -1
100
AcDbLine
 10
-13656.29613464433
 20
12960.56505432398
 11
-13656.29613464433
 21
13080.56505432398
  0
LINE
  5
1AE
100
AcDbEntity
  8
eksist
  6
ByLayer
 62
  256
370
   -1
100
AcDbLine
 10
-3264.399490575347
 20
8570.565054323979
 11
-3264.399490575347
 21
5540.565054323979
  0
LINE
  5
1AF
100
AcDbEntity
  8
eksist
  6
ByLayer
 62
  256
370
   -1
100
AcDbLine
 10
-3264.399490575347
 20
5540.565054323979
 11
-2964.399490575347
 21
5540.565054323979
  0
LWPOLYLINE
  5
1B0
100
AcDbEntity
  8
udvidelse
  6
ByLayer
 62
  256
370
   -1
100
AcDbPolyline
 90
    4
 70
    1
 43
0
 10
-3264.399490575347
 20
5540.565054323979
 10
-5284.399490575346
 20
5540.565054323979
 10
-5284.399490575346
 20
5840.565054323979
 10
-3264.399490575347
 20
5840.565054323979
  0
LWPOLYLINE
  5
1B1
100
AcDbEntity
  8
eksist
  6
CONTINUOUS
 62
  256
370
   -1
100
AcDbPolyline
 90
    2
 70
    0
 43
0
 10
-15975.38631176245
 20
1739.401562182535
 10
-13759.53404078607
 20
1739.401562182535
  0
LWPOLYLINE
  5
1B2
100
AcDbEntity
  8
eksist
  6
CONTINUOUS
 62
  256
370
   -1
100
AcDbPolyline
 90
    2
 70
    0
 43
0
 10
-13759.53404078607
 20
1739.401562182535
 10
-13759.53404078607
 20
2039.401562182536
  0
LWPOLYLINE
  5
1B3
100
AcDbEntity
  8
eksist
  6
CONTINUOUS
 62
  256
370
   -1
100
AcDbPolyline
 90
    2
 70
    0
 43
0
 10
-13759.53404078607
 20
2039.401562182536
 10
-15975.38631176245
 20
2039.401562182536
  0
LWPOLYLINE
  5
1B4
100
AcDbEntity
  8
eksist
  6
CONTINUOUS
 62
  256
370
   -1
100
AcDbPolyline
 90
    2
 70
    0
 43
0
 10
-15975.38631176245
 20
2039.401562182536
 10
-15975.38631176245
 20
1739.401562182535
  0
LWPOLYLINE
  5
1B5
100
AcDbEntity
  8
eksist
  6
CONTINUOUS
 62
  256
370
   -1
100
AcDbPolyline
 90
    2
 70
    0
 43
0
 10
-13753.82351073777
 20
310.353219885726
 10
-13753.82351073777
 20
660.3532198857251
  0
LWPOLYLINE
  5
1B6
100
AcDbEntity
  8
eksist
  6
CONTINUOUS
 62
  256
370
   -1
100
AcDbPolyline
 90
    2
 70
    0
 43
0
 10
-15969.67578171416
 20
660.3532198857251
 10
-15969.67578171416
 20
310.353219885726
  0
MTEXT
  5
1B7
100
AcDbEntity
  8
anvendelse
  6
CONTINUOUS
 62
  256
370
   -1
100
AcDbMText
 10
-13241.9926369176
 20
1479.196035964392
 30
0
 40
400.0000000000001
 41
2700.000205714892
 71
    7
 72
    5
  1
{Eks. væg}
  7
erstellter_stil_2
210
0
220
0
230
1
 50
0
 73
    1
 44
1
  0
MTEXT
  5
1B8
100
AcDbEntity
  8
anvendelse
  6
CONTINUOUS
 62
  256
370
   -1
100
AcDbMText
 10
-13236.28210686931
 20
50.1476936675831
 30
0
 40
400.0000000000001
 41
2300.000000000013
 71
    7
 72
    5
  1
{Ny væg}
  7
erstellter_stil_2
210
0
220
0
230
1
 50
0
 73
    1
 44
1
  0
LWPOLYLINE
  5
1B9
100
AcDbEntity
  8
udvidelse
  6
ByLayer
 62
  256
370
   -1
100
AcDbPolyline
 90
    4
 70
    1
 43
0
 10
-15969.67578171416
 20
660.3532198857251
 10
-13753.82351073777
 20
660.3532198857251
 10
-13753.82351073777
 20
310.353219885726
 10
-15969.67578171416
 20
310.353219885726
  0
DIMENSION
  5
1BA
100
AcDbEntity
  8
dimensions
  6
ByLayer
 62
  256
370
   -1
100
AcDbDimension
  2
*D3
 10
-2144.47106199536
 20
8570.565054323979
 30
0
 11
-2306.97106199536
 21
7055.565054323979
 31
0
 70
   33
 71
    5
 72
    0
  3
Standard
 53
0
210
0
220
0
230
1
100
AcDbAlignedDimension
 13
-2964.399490575347
 23
5540.565054323979
 33
0
 14
-2964.399490575347
 24
8570.565054323979
 34
0
  0
MTEXT
  5
1BB
100
AcDbEntity
  8
anvendelse
  6
CONTINUOUS
 62
  256
370
   -1
100
AcDbMText
 10
-5764.736070648461
 20
6728.29878447842
 30
0
 40
240
 41
1493.333456762263
 71
    7
 72
    5
  1
{Værelse}
  7
erstellter_stil_2
210
0
220
0
230
1
 50
0
 73
    1
 44
1
  0
INSERT
  5
1BC
100
AcDbEntity
  8
eksist
  6
CONTINUOUS
 62
  256
370
   -1
100
AcDbBlockReference
  2
inner-win
 10
-4117.567646898218
 20
5725.560108647957
 30
0
 41
-1
 42
1
 43
0
 50
360
 70
    1
 71
    1
 44
0
 45
0
  0
LWPOLYLINE
  5
1BD
100
AcDbEntity
  8
eksist
  6
ByLayer
 62
    7
370
   -1
100
AcDbPolyline
 90
    4
 70
    1
 43
0
 10
-4842.571472522546
 20
5840.565054323979
 10
-3392.571472522546
 20
5840.565054323979
 10
-3392.571472522546
 20
5540.565054323979
 10
-4842.571472522546
 20
5540.565054323979
  0
LINE
  5
1BE
100
AcDbEntity
  8
eksist
  6
ByLayer
 62
  256
370
   -1
100
AcDbLine
 10
-3264.399490575346
 20
12042.35609164359
 11
-3264.399490575346
 21
10592.35609164359
  0
LWPOLYLINE
  5
1BF
100
AcDbEntity
  8
eksist
  6
CONTINUOUS
 62
  256
370
   -1
100
AcDbPolyline
 90
    2
 70
    0
 43
0
 10
-2964.399490575347
 20
5540.565054323979
 10
-2964.399490575347
 20
8870.565054323979
  0
LWPOLYLINE
  5
1C0
100
AcDbEntity
  8
eksist
  6
CONTINUOUS
 62
  256
370
   -1
100
AcDbPolyline
 90
    2
 70
    0
 43
0
 10
-6524.399490575348
 20
12960.56505432398
 10
-6314.399490575346
 20
12960.56505432398
  0
INSERT
  5
1C1
100
AcDbEntity
  8
eksist
  6
ByLayer
 62
  256
370
   -1
100
AcDbBlockReference
  2
dør_80
 10
-10682.88763375034
 20
7768.402449063923
 30
0
 41
1
 42
1
 43
0
 50
180
 70
    1
 71
    1
 44
0
 45
0
  0
LWPOLYLINE
  5
1C2
100
AcDbEntity
  8
eksist
  6
CONTINUOUS
 62
  256
370
   -1
100
AcDbPolyline
 90
    2
 70
    0
 43
0
 10
-10681.73214714461
 20
8570.565054323979
 10
-3264.399490575347
 20
8570.565054323979
  0
LWPOLYLINE
  5
1C3
100
AcDbEntity
  8
eksist
  6
CONTINUOUS
 62
  256
370
   -1
100
AcDbPolyline
 90
    2
 70
    0
 43
0
 10
-10681.73214714461
 20
8870.565054323979
 10
-10681.73214714461
 20
8570.565054323979
  0
LWPOLYLINE
  5
1C4
100
AcDbEntity
  8
eksist
  6
CONTINUOUS
 62
  256
370
   -1
100
AcDbPolyline
 90
    2
 70
    0
 43
0
 10
-16514.39949057535
 20
8570.565054323979
 10
-16214.39949057535
 20
8570.565054323979
  0
LWPOLYLINE
  5
1C5
100
AcDbEntity
  8
eksist
  6
CONTINUOUS
 62
  256
370
   -1
100
AcDbPolyline
 90
    2
 70
    0
 43
0
 10
-16214.39949057535
 20
8870.565054323979
 10
-16214.39949057535
 20
8870.565054323979
  0
LINE
  5
1C6
100
AcDbEntity
  8
udvidelse
  6
ByLayer
 62
  256
370
   -1
100
AcDbLine
 10
-7084.399490575346
 20
8470.565054323979
 11
-7084.399490575346
 21
7770.565054323979
  0
LINE
  5
1C7
100
AcDbEntity
  8
udvidelse
  6
ByLayer
 62
  256
370
   -1
100
AcDbLine
 10
-8334.399490575346
 20
8570.565054323979
 11
-8334.399490575346
 21
7420.565054323979
  0
LINE
  5
1C8
100
AcDbEntity
  8
udvidelse
  6
ByLayer
 62
  256
370
   -1
100
AcDbLine
 10
-8334.399490575346
 20
7420.565054323979
 11
-7084.399490575346
 21
7420.565054323979
  0
LWPOLYLINE
  5
1C9
100
AcDbEntity
  8
udvidelse
  6
ByLayer
 62
  256
370
   -1
100
AcDbPolyline
 90
    4
 70
    1
 43
0
 10
-8214.399490575346
 20
7540.565054323979
 10
-8334.399490575346
 20
7540.565054323979
 10
-8334.399490575346
 20
8570.565054323979
 10
-8214.399490575346
 20
8570.565054323979
  0
LWPOLYLINE
  5
1CA
100
AcDbEntity
  8
udvidelse
  6
ByLayer
 62
  256
370
   -1
100
AcDbPolyline
 90
    4
 70
    1
 43
0
 10
-8334.399490575346
 20
7420.565054323979
 10
-7084.399490575346
 20
7420.565054323979
 10
-7084.399490575346
 20
7540.565054323979
 10
-8334.399490575346
 20
7540.565054323979
  0
INSERT
  5
1CB
100
AcDbEntity
  8
udvidelse
  6
ByLayer
 62
  256
370
   -1
100
AcDbBlockReference
  2
tilnyeværelse
 10
-6964.399490575346
 20
8024.832119168233
 30
0
 41
-1
 42
1
 43
0
 50
270
 70
    1
 71
    1
 44
0
 45
0
  0
INSERT
  5
1CC
100
AcDbEntity
  8
udvidelse
  6
ByLayer
 62
  256
370
   -1
100
AcDbBlockReference
  2
tilnyeværelse
 10
-8334.399490575346
 20
8024.832119168233
 30
0
 41
1
 42
1
 43
0
 50
90
 70
    1
 71
    1
 44
0
 45
0
  0
MTEXT
  5
1CD
100
AcDbEntity
  8
anvendelse
  6
CONTINUOUS
 62
  256
370
   -1
100
AcDbMText
 10
-9345.106263836091
 20
6728.29878447842
 30
0
 40
240
 41
1493.333456762263
 71
    7
 72
    5
  1
{Værelse}
  7
erstellter_stil_2
210
0
220
0
230
1
 50
0
 73
    1
 44
1
  0
LINE
  5
1CE
100
AcDbEntity
  8
eksist
  6
ByLayer
 62
  256
370
   -1
100
AcDbLine
 10
-8334.399490575346
 20
8414.832119168233
 11
-8214.399490575346
 21
8414.832119168233
  0
LINE
  5
1CF
100
AcDbEntity
  8
eksist
  6
ByLayer
 62
  256
370
   -1
100
AcDbLine
 10
-8334.399490575346
 20
7634.832119168233
 11
-8214.399490575346
 21
7634.832119168233
  0
LINE
  5
1D0
100
AcDbEntity
  8
eksist
  6
ByLayer
 62
  256
370
   -1
100
AcDbLine
 10
-7084.399490575346
 20
7634.832119168233
 11
-6964.399490575346
 21
7634.832119168233
  0
LINE
  5
1D1
100
AcDbEntity
  8
eksist
  6
ByLayer
 62
  256
370
   -1
100
AcDbLine
 10
-6964.399490575346
 20
8414.832119168233
 11
-7084.399490575346
 21
8414.832119168233
  0
LWPOLYLINE
  5
1D2
100
AcDbEntity
  8
udvidelse
  6
ByLayer
 62
  256
370
   -1
100
AcDbPolyline
 90
    4
 70
    1
 43
0
 10
-5284.399490575346
 20
5840.565054323979
 10
-4984.399490575346
 20
5840.565054323979
 10
-4984.399490575346
 20
4970.565054323979
 10
-5284.399490575346
 20
4970.565054323979
  0
DIMENSION
  5
1D3
100
AcDbEntity
  8
dimensions
  6
ByLayer
 62
  256
370
   -1
100
AcDbDimension
  2
*D4
 10
-2964.399490575347
 20
3889.327131662233
 30
0
 11
-3974.399490575347
 21
4051.827131662233
 31
0
 70
   33
 71
    5
  3
Standard
 53
0
210
0
220
0
230
1
100
AcDbAlignedDimension
 13
-4984.399490575346
 23
4670.565054323979
 33
0
 14
-2964.399490575347
 24
4670.565054323979
 34
0
  0
DIMENSION
  5
1D4
100
AcDbEntity
  8
dimensions
  6
ByLayer
 62
  256
370
   -1
100
AcDbDimension
  2
*D5
 10
-2141.138744483978
 20
4670.565054323978
 30
0
 11
-2303.638744483978
 21
5105.565054323978
 31
0
 70
   33
 71
    5
  3
Standard
 53
0
210
0
220
0
230
1
100
AcDbAlignedDimension
 13
-4984.399490575346
 23
5540.565054323979
 33
0
 14
-4984.399490575346
 24
4670.565054323979
 34
0
  0
DIMENSION
  5
1D5
100
AcDbEntity
  8
dimensions
  6
ByLayer
 62
  256
370
   -1
100
AcDbDimension
  2
*D6
 10
-10454.39949057535
 20
3880.415338684346
 30
0
 11
-7719.399490575348
 21
4042.915338684346
 31
0
 70
   33
 71
    5
 72
    0
  3
Standard
 53
0
210
0
220
0
230
1
100
AcDbAlignedDimension
 13
-4984.399490575346
 23
4670.565054323979
 33
0
 14
-10454.39949057535
 24
4670.565054323979
 34
0
  0
LWPOLYLINE
  5
1D6
100
AcDbEntity
  8
udvidelse
  6
ByLayer
 62
  256
370
   -1
100
AcDbPolyline
 90
    4
 70
    1
 43
0
 10
-10454.39949057535
 20
4970.565054323979
 10
-10154.39949057535
 20
4970.565054323979
 10
-10154.39949057535
 20
8570.565054323979
 10
-10454.39949057535
 20
8570.565054323979
  0
LWPOLYLINE
  5
1D7
100
AcDbEntity
  8
udvidelse
  6
ByLayer
 62
  256
370
   -1
100
AcDbPolyline
 90
    4
 70
    1
 43
0
 10
-10454.39949057535
 20
4970.565054323979
 10
-4984.399490575346
 20
4970.565054323979
 10
-4984.399490575346
 20
4670.565054323979
 10
-10454.39949057535
 20
4670.565054323979
  0
LINE
  5
1D8
100
AcDbEntity
  8
udvidelse
  6
ByLayer
 62
  256
370
   -1
100
AcDbLine
 10
-6964.399490575346
 20
4970.565054323979
 11
-7084.399490575346
 21
4970.565054323979
  0
LWPOLYLINE
  5
1D9
100
AcDbEntity
  8
udvidelse
  6
ByLayer
 62
  256
370
   -1
100
AcDbPolyline
 90
    4
 70
    1
 43
0
 10
-7084.399490575346
 20
8570.565054323979
 10
-6964.399490575346
 20
8570.565054323979
 10
-6964.399490575346
 20
4970.565054323979
 10
-7084.399490575346
 20
4970.565054323979
  0
LINE
  5
1DA
100
AcDbEntity
  8
udvidelse
  6
CONTINUOUS
 62
    7
370
   -1
100
AcDbLine
 10
-7957.694190530799
 20
4970.565054323979
 11
-9407.694190530799
 21
4970.565054323979
  0
LINE
  5
1DB
100
AcDbEntity
  8
udvidelse
  6
CONTINUOUS
 62
    7
370
   -1
100
AcDbLine
 10
-9407.694190530799
 20
4670.565054323979
 11
-7957.694190530799
 21
4670.565054323979
  0
INSERT
  5
1DC
100
AcDbEntity
  8
eksist
  6
CONTINUOUS
 62
  256
370
   -1
100
AcDbBlockReference
  2
inner-win
 10
-8682.690364906472
 20
4855.560108647957
 30
0
 41
-1
 42
1
 43
0
 50
360
 70
    1
 71
    1
 44
0
 45
0
  0
LWPOLYLINE
  5
1DD
100
AcDbEntity
  8
eksist
  6
ByLayer
 62
    7
370
   -1
100
AcDbPolyline
 90
    4
 70
    1
 43
0
 10
-9407.694190530799
 20
4970.565054323979
 10
-7957.694190530799
 20
4970.565054323979
 10
-7957.694190530799
 20
4670.565054323979
 10
-9407.694190530799
 20
4670.565054323979
  0
MTEXT
  5
1DE
100
AcDbEntity
  8
eksist
  6
ByLayer
 62
  256
370
   -1
100
AcDbMText
 10
-7346.991815696966
 20
10568.54472709985
 30
0
 40
300
 41
833.4476249407444
 71
    1
 72
    1
  1
skab
  7
iso
210
0
220
0
230
1
 50
90
 73
    2
 44
1
  0
LWPOLYLINE
  5
1DF
100
AcDbEntity
  8
eksist
  6
ByLayer
 62
  256
370
   -1
100
AcDbPolyline
 90
    4
 70
    1
 43
0
 10
-7084.399490575346
 20
12960.56505432398
 10
-6384.399490575346
 20
12960.56505432398
 10
-6384.399490575346
 20
8870.565054323979
 10
-7084.399490575346
 20
8870.565054323979
  0
LWPOLYLINE
  5
1E0
100
AcDbEntity
  8
eksist
  6
CONTINUOUS
 62
  256
370
   -1
100
AcDbPolyline
 90
    2
 70
    0
 43
0
 10
-6314.399490575346
 20
13080.56505432398
 10
-7084.399490575346
 20
13080.56505432398
  0
LWPOLYLINE
  5
1E1
100
AcDbEntity
  8
eksist
  6
CONTINUOUS
 62
  256
370
   -1
100
AcDbPolyline
 90
    2
 70
    0
 43
0
 10
-7084.399490575346
 20
13080.56505432398
 10
-7084.399490575346
 20
12960.56505432398
  0
INSERT
  5
1E2
100
AcDbEntity
  8
00 Landinspektør
  6
ByLayer
 62
  256
370
   -1
100
AcDbBlockReference
  2
north_block
 10
-29922.26259745454
 20
15327.41134935525
 30
0
 41
1
 42
1
 43
0
 50
0
 70
    1
 71
    1
 44
0
 45
0
  0
LINE
  5
1E3
100
AcDbEntity
  8
00 Landinspektør
  6
ByLayer
 62
  256
370
   -1
100
AcDbLine
 10
-10154.39949057535
 20
8570.565054323979
 11
-9754.39949057535
 21
8570.565054323979
  0
LINE
  5
1E4
100
AcDbEntity
  8
00 Landinspektør
  6
ByLayer
 62
  256
370
   -1
100
AcDbLine
 10
-9754.39949057535
 20
8570.565054323979
 11
-9754.39949057535
 21
7370.565054323979
  0
LINE
  5
1E5
100
AcDbEntity
  8
eksist
  6
CONTINUOUS
 62
  256
370
   -1
100
AcDbLine
 10
-16114.39949057535
 20
8570.565054323979
 11
-15278.53415684153
 21
8570.565054323979
  0
LINE
  5
1E6
100
AcDbEntity
  8
eksist
  6
CONTINUOUS
 62
  256
370
   -1
100
AcDbLine
 10
-15278.53415684153
 20
8870.565054323979
 11
-16114.39949057535
 21
8870.565054323979
  0
LINE
  5
1E7
100
AcDbEntity
  8
eksist
  6
CONTINUOUS
 62
  256
370
   -1
100
AcDbLine
 10
-15278.53415684153
 20
8755.565054323979
 11
-15278.53415684153
 21
8705.565054323979
  0
LINE
  5
1E8
100
AcDbEntity
  8
eksist
  6
CONTINUOUS
 62
  256
370
   -1
100
AcDbLine
 10
-15378.53415684153
 20
8755.565054323979
 11
-15378.53415684153
 21
8705.565054323979
  0
LINE
  5
1E9
100
AcDbEntity
  8
eksist
  6
CONTINUOUS
 62
  256
370
   -1
100
AcDbLine
 10
-16114.39949057535
 20
8755.565054323979
 11
-16114.39949057535
 21
8705.565054323979
  0
LINE
  5
1EA
100
AcDbEntity
  8
eksist
  6
CONTINUOUS
 62
  256
370
   -1
100
AcDbLine
 10
-16114.39949057535
 20
8755.565054323979
 11
-15278.53415684153
 21
8755.565054323979
  0
LINE
  5
1EB
100
AcDbEntity
  8
eksist
  6
CONTINUOUS
 62
  256
370
   -1
100
AcDbLine
 10
-16114.39949057535
 20
8705.565054323979
 11
-15278.53415684153
 21
8705.565054323979
  0
LINE
  5
1EC
100
AcDbEntity
  8
eksist
  6
CONTINUOUS
 62
  256
370
   -1
100
AcDbLine
 10
-16014.39949057535
 20
8755.565054323979
 11
-16014.39949057535
 21
8705.565054323979
  0
LINE
  5
1ED
100
AcDbEntity
  8
eksist
  6
CONTINUOUS
 62
  256
370
   -1
100
AcDbLine
 10
-16014.39949057535
 20
8730.565054323979
 11
-15378.53415684153
 21
8730.565054323979
  0
LINE
  5
1EE
100
AcDbEntity
  8
eksist
  6
CONTINUOUS
 62
  256
370
   -1
100
AcDbLine
 10
-15218.62789803455
 20
8570.565054323979
 11
-13494.50729183009
 21
8570.565054323979
  0
LINE
  5
1EF
100
AcDbEntity
  8
eksist
  6
CONTINUOUS
 62
  256
370
   -1
100
AcDbLine
 10
-13494.50729183009
 20
8870.565054323979
 11
-15218.62789803455
 21
8870.565054323979
  0
INSERT
  5
1F0
100
AcDbEntity
  8
eksist
  6
CONTINUOUS
 62
  256
370
   -1
100
AcDbBlockReference
  2
store_vindu
 10
-14356.56759493232
 20
8755.565054323979
 30
0
 41
1
 42
1
 43
0
 50
0
 70
    1
 71
    1
 44
0
 45
0
  0
LINE
  5
1F1
100
AcDbEntity
  8
eksist
  6
CONTINUOUS
 62
  256
370
   -1
100
AcDbLine
 10
-13311.18002258958
 20
8570.565054323979
 11
-11587.05941638513
 21
8570.565054323979
  0
LINE
  5
1F2
100
AcDbEntity
  8
eksist
  6
CONTINUOUS
 62
  256
370
   -1
100
AcDbLine
 10
-11587.05941638513
 20
8870.565054323979
 11
-13311.18002258958
 21
8870.565054323979
  0
INSERT
  5
1F3
100
AcDbEntity
  8
eksist
  6
CONTINUOUS
 62
  256
370
   -1
100
AcDbBlockReference
  2
store_vindu
 10
-12449.11971948735
 20
8755.565054323979
 30
0
 41
1
 42
1
 43
0
 50
0
 70
    1
 71
    1
 44
0
 45
0
  0
LWPOLYLINE
  5
1F4
100
AcDbEntity
  8
00 Landinspektør
  6
ByLayer
 62
  256
370
   -1
100
AcDbPolyline
 90
    4
 70
    1
 43
0
 10
-16214.39949057535
 20
8870.565054323979
 10
-11481.7321471446
 20
8870.565054323979
 10
-11481.7321471446
 20
8570.565054323979
 10
-16214.39949057535
 20
8570.565054323979
  0
LINE
  5
1F5
100
AcDbEntity
  8
00 Landinspektør
  6
ByLayer
 62
  256
370
   -1
100
AcDbLine
 10
-16114.39949057535
 20
8870.565054323979
 11
-16114.39949057535
 21
8570.565054323979
  0
LINE
  5
1F6
100
AcDbEntity
  8
00 Landinspektør
  6
ByLayer
 62
  256
370
   -1
100
AcDbLine
 10
-15278.53415684153
 20
8870.565054323979
 11
-15278.53415684153
 21
8570.565054323979
  0
LINE
  5
1F7
100
AcDbEntity
  8
00 Landinspektør
  6
ByLayer
 62
  256
370
   -1
100
AcDbLine
 10
-15218.62789803455
 20
8870.565054323979
 11
-15218.62789803455
 21
8570.565054323979
  0
LINE
  5
1F8
100
AcDbEntity
  8
00 Landinspektør
  6
ByLayer
 62
  256
370
   -1
100
AcDbLine
 10
-13494.50729183009
 20
8870.565054323979
 11
-13494.50729183009
 21
8570.565054323979
  0
LINE
  5
1F9
100
AcDbEntity
  8
00 Landinspektør
  6
ByLayer
 62
  256
370
   -1
100
AcDbLine
 10
-13311.18002258958
 20
8870.565054323979
 11
-13311.18002258958
 21
8570.565054323979
  0
LINE
  5
1FA
100
AcDbEntity
  8
00 Landinspektør
  6
ByLayer
 62
  256
370
   -1
100
AcDbLine
 10
-11587.05941638513
 20
8870.565054323979
 11
-11587.05941638513
 21
8570.565054323979
  0
LINE
  5
1FB
100
AcDbEntity
  8
00 Landinspektør
  6
ByLayer
 62
  256
370
   -1
100
AcDbLine
 10
-13398.00023988229
 20
8870.565054323979
 11
-13398.00023988229
 21
8570.565054323979
  0
ENDSEC
  0
SECTION
  2
OBJECTS
  0
DICTIONARY
  5
C
330
0
100
AcDbDictionary
281
    1
  3
ACAD_GROUP
350
D
  0
DICTIONARY
  5
D
330
C
100
AcDbDictionary
281
    1
  0
ENDSEC
  0
EOF
